<svg width="100" height="100" viewBox="0 0 100 100" fill="none" xmlns="http://www.w3.org/2000/svg">
<path d="M92.5 0H32.5C28.3594 0 25 4.3457 25 9.69336V18.75C28.6594 18.75 32.0469 20.0744 34.8594 22.2285V12.5H89.8594V68.75H79.8594V59.375C79.8594 57.6488 78.74 56.25 77.3594 56.25H62.3594C60.9788 56.25 59.8594 57.6488 59.8594 59.375V68.75H44.8906C48.3391 71.9687 51.0687 76.2695 52.8219 81.25H92.4938C96.6406 81.25 100 76.9141 100 71.5625V9.69336C100 4.3457 96.6406 0 92.5 0ZM25 62.5C33.2844 62.5 40 54.1055 40 43.75C40 33.3945 33.2844 25 25 25C16.5781 25 10 33.2227 10 43.75C10 54.1016 16.5781 62.5 25 62.5ZM30 68.75H20C8.95469 68.75 0 79.9434 0 93.75C0 97.2012 2.23906 100 5 100H45C47.7609 100 50 97.2012 50 93.75C50 79.9414 41.0469 68.75 30 68.75Z" fill="white"/>
</svg>
