<svg width="256" height="512" viewBox="0 0 256 512" fill="none" xmlns="http://www.w3.org/2000/svg">
<path d="M144 1.39999C112.8 7.29999 87.8 26 74 53.8C64.9 72.4 64 79.1 64 132.2V176H32H0V216V256H32H64V384V512H112H160V384V256L192.1 255.8L224.2 255.5L240 216L255.8 176.5L207.9 176.2L159.9 176L160.2 140.2L160.5 104.5L163.1 98.9C166.4 91.8 171.8 86.4 178.9 83.1C184.3 80.6 185.4 80.5 204.3 80.2L224 79.8V39.9V-7.62939e-06L187.3 0.0999924C163.2 0.199992 148.3 0.599992 144 1.39999Z" fill="#F9F0DC"/>
</svg>
