<svg width="100" height="80" viewBox="0 0 100 80" fill="none" xmlns="http://www.w3.org/2000/svg">
<path d="M97.3594 18.7297L53.1875 0.657615C51.0422 -0.219205 48.7031 -0.219205 46.5578 0.657615L2.50781 18.7297C1.00594 19.3548 0 20.9977 0 22.8549C0 24.7121 1.00594 26.364 2.50781 26.9783L11.8859 30.8195C10.0281 33.641 8.72031 36.9197 8.05 40.4538C6.25781 41.3199 5 43.3557 5 45.7129C5 47.4903 5.75219 49.0149 6.86562 50.0631L2.98594 76.6713C2.73125 78.4106 3.90625 80 5.45156 80H14.5484C16.0933 80 17.2687 78.4144 17.0141 76.6731L13.1344 50.0649C14.2484 49.0166 15 47.338 15 45.7129C15 43.8754 14.1916 42.3146 13.0125 41.2681C13.6769 38.0966 15.025 35.2286 16.9094 32.8696L46.6906 45.054C48.8359 45.9308 51.175 45.9308 53.3203 45.054L97.4922 26.9819C99 26.355 100 24.7121 100 22.8549C100 20.9977 99 19.3548 97.3594 18.7297ZM54.8594 50.4274C53.3906 51.0882 51.7031 51.4275 50 51.4275C48.2937 51.4275 46.6109 51.094 45 50.4355L22.3125 41.1592L20 66.6602C20 74.0355 33.2969 80 50 80C66.4219 80 80 74.0355 80 66.6655L77.6906 41.1467L54.8594 50.4274Z" fill="white"/>
</svg>
