<?xml version="1.0" standalone="no"?>
<!DOCTYPE svg PUBLIC "-//W3C//DTD SVG 20010904//EN"
 "http://www.w3.org/TR/2001/REC-SVG-20010904/DTD/svg10.dtd">
<svg version="1.0" xmlns="http://www.w3.org/2000/svg"
 width="1000.000000pt" height="1000.000000pt" viewBox="0 0 1000.000000 1000.000000"
 preserveAspectRatio="xMidYMid meet">

<g transform="translate(0.000000,1000.000000) scale(0.100000,-0.100000)"
fill="#000000" stroke="none">
<path d="M4980 9057 c-30 -9 -32 -11 -12 -15 17 -3 22 -10 22 -33 0 -25 -4
-29 -29 -29 -45 0 -95 -40 -99 -79 -6 -60 56 -98 106 -65 18 12 27 13 30 6 2
-7 22 -12 45 -12 30 0 38 3 27 10 -11 7 -16 35 -18 120 -4 122 -2 119 -72 97z
m4 -110 c12 -9 17 -23 14 -47 -3 -30 -7 -35 -31 -38 -36 -4 -57 13 -57 47 0
47 37 65 74 38z"/>
<path d="M5381 8973 c16 -18 13 -110 -3 -130 -8 -10 2 -13 43 -13 33 0 49 4
41 9 -8 4 -12 20 -10 36 l3 27 47 -41 c33 -30 55 -41 78 -41 l32 0 -51 46
c-28 25 -51 49 -51 53 0 10 66 41 88 42 10 0 6 5 -11 11 -23 8 -34 5 -76 -21
-58 -37 -61 -38 -61 -6 0 17 6 25 18 26 19 1 -52 18 -82 18 -16 1 -17 -1 -5
-16z"/>
<path d="M4630 8943 c-44 -17 -70 -45 -70 -77 0 -59 50 -84 135 -66 70 15 71
30 2 23 -43 -4 -57 -2 -72 13 -18 19 -17 19 41 30 68 12 84 19 84 39 0 33 -73
56 -120 38z m56 -30 c17 -17 16 -18 -12 -24 -50 -11 -64 -10 -64 6 0 9 10 20
23 25 31 12 33 12 53 -7z"/>
<path d="M5763 8940 c-31 -13 -29 -24 3 -16 36 9 64 -2 64 -25 0 -16 -7 -19
-48 -19 -26 0 -53 -5 -60 -12 -36 -36 14 -81 69 -61 23 9 29 8 29 -2 0 -7 14
-15 31 -19 44 -8 57 -7 38 4 -13 8 -15 18 -8 52 14 71 12 78 -26 94 -39 16
-60 17 -92 4z m65 -87 c-4 -20 -45 -30 -60 -15 -16 16 1 32 33 32 24 0 30 -4
27 -17z"/>
<path d="M6028 8904 c15 -7 15 -19 1 -84 -7 -35 -16 -50 -27 -51 -9 -1 6 -7
33 -14 50 -12 70 -11 48 3 -8 5 -10 18 -5 36 l8 29 24 -30 c14 -16 32 -38 40
-50 8 -12 31 -25 50 -28 39 -8 40 -14 -24 67 l-37 47 38 10 c21 6 49 12 63 14
24 3 24 4 -5 12 -22 6 -45 3 -87 -13 -57 -20 -58 -20 -58 -1 0 11 10 23 22 28
22 8 22 8 3 14 -29 9 -102 18 -87 11z"/>
<path d="M4340 8889 c-56 -23 -87 -79 -62 -115 12 -19 49 -34 81 -34 35 0 111
28 111 41 0 5 -12 4 -26 -1 -37 -14 -90 -12 -103 4 -15 17 -10 20 57 36 62 14
76 35 43 62 -25 20 -62 22 -101 7z m67 -35 c2 -6 -17 -15 -42 -21 -40 -9 -45
-8 -45 8 0 9 6 20 13 23 20 8 70 2 74 -10z"/>
<path d="M4038 8800 c-16 -12 -29 -16 -33 -11 -6 11 -75 -17 -75 -31 0 -4 6
-5 14 -2 10 4 19 -10 32 -51 16 -49 16 -58 4 -66 -19 -13 25 -5 67 13 20 8 24
12 12 15 -10 2 -22 23 -29 49 -14 50 -7 64 37 64 17 0 25 -10 38 -50 9 -27 22
-50 28 -50 25 0 57 13 57 22 0 5 -4 7 -9 3 -5 -3 -18 21 -28 52 -17 55 -20 58
-54 61 -24 2 -43 -4 -61 -18z"/>
<path d="M6350 8790 c-41 -41 -22 -99 40 -124 58 -23 96 -20 125 9 44 43 29
93 -35 119 -55 22 -105 21 -130 -4z m121 -21 c15 -15 19 -28 14 -47 -13 -53
-41 -65 -83 -36 -26 18 -28 50 -6 82 19 28 48 28 75 1z"/>
<path d="M6780 8725 c59 -32 85 -32 38 0 -20 14 -47 25 -60 25 -18 -1 -14 -6
22 -25z"/>
<path d="M6650 8730 c0 -5 5 -10 10 -12 7 -2 1 -30 -14 -71 l-26 -67 25 0 c13
0 55 11 91 25 37 14 68 24 70 22 7 -7 -37 -87 -48 -87 -17 -1 52 -39 71 -40 9
0 10 4 4 13 -14 17 33 117 55 117 12 1 10 5 -8 15 -35 20 -48 19 -119 -11 -35
-14 -65 -23 -67 -21 -10 10 28 77 43 77 9 0 13 3 9 7 -13 13 -96 41 -96 33z"/>
<path d="M3615 8645 c-16 -8 -42 -16 -56 -19 -65 -14 -108 -90 -58 -103 16 -4
19 -11 15 -29 -4 -14 -1 -26 7 -31 8 -4 13 -21 13 -38 -1 -21 4 -30 17 -33 68
-14 157 46 157 104 0 45 -20 52 -79 29 -65 -25 -91 -29 -91 -16 0 6 10 15 23
20 33 13 71 57 64 75 -4 10 1 20 13 26 19 10 28 31 13 29 -5 0 -21 -6 -38 -14z
m-37 -68 c4 -20 -25 -34 -40 -19 -15 15 -1 44 19 40 10 -2 19 -11 21 -21z m90
-104 c4 -26 -32 -53 -70 -53 -53 0 -47 40 10 63 45 18 56 16 60 -10z"/>
<path d="M7147 8503 c-11 -10 -8 -35 3 -28 8 5 43 -7 58 -20 5 -4 -28 -67 -45
-87 -8 -9 -22 -14 -31 -11 -27 10 -2 -11 51 -41 26 -15 47 -23 47 -17 0 5 -6
11 -12 13 -14 5 15 80 38 99 16 13 54 -5 54 -26 0 -20 16 -19 24 1 8 21 17 13
-87 73 -98 57 -91 53 -100 44z"/>
<path d="M3283 8490 c-12 -5 -29 -20 -39 -35 -11 -17 -20 -22 -28 -16 -7 6
-20 1 -38 -14 -30 -26 -36 -37 -14 -29 17 6 70 -81 62 -102 -7 -19 -2 -18 44
11 40 25 52 39 26 29 -14 -5 -56 55 -56 81 0 14 29 35 49 35 6 0 23 -19 37
-42 15 -24 28 -44 29 -46 2 -2 18 5 37 14 21 12 28 19 18 21 -8 2 -28 25 -45
51 -32 49 -46 57 -82 42z"/>
<path d="M2942 8378 c-17 -17 -15 -35 5 -42 20 -8 59 27 49 43 -9 15 -39 14
-54 -1z"/>
<path d="M2981 8298 c-32 -28 -33 -31 -10 -25 20 5 29 -1 53 -35 24 -34 27
-44 18 -59 -17 -26 -8 -24 44 11 44 31 56 44 31 34 -8 -3 -28 17 -50 51 -21
30 -41 55 -45 55 -4 0 -22 -15 -41 -32z"/>
<path d="M7396 8288 c-18 -26 -20 -61 -6 -88 14 -26 91 -70 122 -70 37 0 70
41 66 81 -7 74 -144 132 -182 77z m123 -32 l23 -25 -19 -33 c-24 -42 -43 -45
-79 -15 l-29 25 18 36 c20 44 52 48 86 12z"/>
<path d="M2632 8149 c-21 -26 -22 -29 -5 -29 25 -1 129 -134 125 -161 -2 -19
2 -17 39 12 36 29 39 34 23 40 -11 4 -29 21 -42 38 -17 24 -20 35 -13 50 20
37 44 35 81 -8 40 -46 46 -48 78 -22 23 20 31 38 11 25 -7 -4 -29 13 -54 41
-41 48 -42 49 -74 35 -20 -8 -39 -26 -49 -46 l-15 -33 -35 44 c-19 25 -37 45
-41 44 -3 0 -16 -13 -29 -30z"/>
<path d="M7883 8031 c-41 -25 -83 -88 -83 -123 0 -33 48 -91 90 -108 59 -25
120 20 105 77 -8 32 -69 93 -94 93 -27 0 -33 12 -13 26 29 23 59 15 107 -26
25 -22 52 -40 60 -40 24 0 26 18 4 30 -11 7 -37 27 -58 45 -48 44 -78 50 -118
26z m47 -101 c24 -24 25 -48 4 -78 -18 -26 -50 -28 -76 -5 -24 21 -23 54 2 81
26 27 44 28 70 2z"/>
<path d="M2472 7966 c-8 -18 -7 -28 4 -45 8 -12 12 -26 8 -33 -5 -7 -3 -8 5
-3 8 5 29 -8 56 -35 42 -41 43 -42 73 -26 16 8 32 25 35 38 8 29 4 32 -22 16
-19 -11 -24 -9 -53 19 l-32 32 24 26 c28 30 16 34 -15 5 l-22 -21 -17 26 c-21
31 -30 32 -44 1z"/>
<path d="M2362 7787 c-25 -27 -28 -39 -8 -31 9 4 19 -9 29 -40 9 -25 14 -46
11 -46 -3 0 -25 5 -49 11 -34 9 -42 15 -38 28 7 20 -54 -36 -69 -62 -8 -16 -7
-18 7 -9 12 6 42 3 95 -10 68 -17 79 -23 85 -45 4 -17 0 -32 -11 -44 -14 -16
-15 -22 -5 -32 10 -9 15 -8 27 7 20 28 17 59 -12 151 -14 44 -26 95 -27 112
-2 39 -7 40 -35 10z"/>
<path d="M8094 7786 c5 -15 -5 -31 -41 -68 -34 -34 -44 -51 -36 -59 9 -9 113
-27 168 -29 17 0 14 -6 -17 -35 -26 -24 -43 -33 -55 -28 -11 4 -5 -8 17 -35
31 -37 61 -59 44 -31 -3 6 11 29 32 50 31 32 44 39 64 34 l24 -6 -19 23 c-35
41 -48 48 -99 49 -28 1 -61 4 -74 8 l-23 6 30 29 c18 17 36 26 45 23 27 -11
18 7 -25 48 -27 26 -39 33 -35 21z"/>
<path d="M2150 7541 c-5 -11 -10 -28 -10 -39 0 -12 -6 -19 -15 -18 -8 0 -25
-14 -37 -33 -21 -32 -21 -33 -2 -27 23 7 94 -47 94 -72 0 -12 9 -7 31 18 16
19 35 44 41 55 10 19 10 19 -8 3 -19 -16 -21 -16 -52 8 -37 30 -40 46 -11 75
16 16 18 23 8 35 -16 19 -26 18 -39 -5z"/>
<path d="M8377 7451 c9 -35 -103 -82 -122 -51 -9 14 -47 -8 -42 -23 2 -7 13
-11 25 -9 15 2 32 -11 62 -49 59 -75 74 -106 55 -116 -9 -6 -11 -13 -5 -23 7
-12 12 -11 30 5 14 13 17 22 10 29 -16 16 -13 21 36 55 28 21 52 31 65 28 22
-6 23 -8 -51 96 -55 77 -72 93 -63 58z m53 -81 c7 -14 0 -24 -35 -49 l-43 -31
-32 40 c-31 40 -31 40 -8 40 12 0 36 9 53 20 31 20 46 15 65 -20z"/>
<path d="M1965 7287 c-32 -32 -60 -102 -53 -134 2 -9 15 -25 30 -36 27 -20 29
-20 63 -4 38 18 95 97 95 131 0 14 -9 6 -30 -27 -27 -42 -71 -70 -86 -54 -3 3
10 29 30 59 39 57 45 83 20 92 -27 10 -35 7 -69 -27z m39 -25 c7 -12 -43 -84
-55 -77 -15 10 -11 30 12 59 21 27 34 32 43 18z"/>
<path d="M8502 7154 c-28 -20 -29 -71 -2 -123 41 -81 112 -104 153 -49 20 26
20 28 2 75 -22 58 -74 113 -107 113 -13 0 -34 -7 -46 -16z m102 -50 c29 -28
32 -65 6 -86 -36 -29 -68 -23 -87 17 -16 34 -16 36 7 60 27 29 52 32 74 9z"/>
<path d="M1790 7018 c-17 -31 -19 -39 -7 -29 10 8 19 12 21 10 2 -2 16 -26 31
-53 l29 -49 -40 6 c-21 4 -47 7 -58 7 -12 0 -16 5 -12 15 3 8 2 15 -2 15 -6 0
-52 -82 -52 -93 0 -1 40 -1 89 1 80 3 89 5 99 26 8 18 3 33 -26 81 -19 33 -38
70 -41 83 -6 22 -8 20 -31 -20z"/>
<path d="M8746 6876 c3 -8 -15 -23 -51 -42 -48 -25 -57 -27 -65 -14 -21 33 -8
-10 16 -54 25 -45 39 -61 28 -32 -4 9 6 20 25 30 l31 16 25 -50 c14 -27 25
-51 25 -53 0 -3 -14 -10 -31 -17 -26 -11 -32 -11 -40 1 -7 12 -9 12 -8 -1 0
-23 48 -108 49 -87 0 25 99 70 119 53 11 -9 13 -6 6 14 -4 14 -16 41 -26 60
-15 28 -18 31 -19 14 0 -18 -17 -34 -36 -34 -3 0 -16 24 -29 52 -21 46 -22 54
-9 61 8 5 22 6 30 3 8 -3 14 -3 14 -1 0 12 -45 95 -52 95 -4 0 -5 -6 -2 -14z"/>
<path d="M1639 6709 c-51 -51 -67 -165 -27 -193 34 -24 57 -19 93 19 33 35 71
124 62 148 -3 7 -7 5 -12 -8 -27 -70 -36 -85 -59 -101 -15 -9 -29 -14 -33 -11
-3 4 6 34 21 67 34 79 34 100 1 100 -14 0 -34 -9 -46 -21z m34 -35 c9 -9 -36
-95 -48 -91 -15 6 -8 57 11 78 18 20 27 23 37 13z"/>
<path d="M1436 6298 c-71 -193 -147 -517 -180 -768 -130 -981 102 -1963 656
-2777 143 -210 288 -384 482 -579 324 -323 651 -559 1054 -759 1289 -639 2827
-533 4019 277 210 143 384 288 579 482 194 195 339 369 482 579 554 814 786
1796 656 2777 -33 251 -109 575 -180 768 l-16 42 -104 0 c-57 0 -104 -1 -104
-3 0 -1 18 -56 41 -122 83 -243 150 -551 181 -830 17 -157 17 -613 0 -770 -99
-891 -473 -1677 -1097 -2300 -624 -624 -1408 -998 -2300 -1097 -157 -17 -613
-17 -770 0 -892 99 -1676 473 -2300 1097 -624 623 -998 1409 -1097 2300 -7 69
-13 232 -13 385 0 153 6 316 13 385 31 278 97 583 181 830 23 66 41 121 41
122 0 2 -47 3 -104 3 l-104 0 -16 -42z"/>
<path d="M1751 6303 c0 -5 55 -53 121 -108 l119 -100 0 -805 c-1 -443 -4 -834
-7 -870 -7 -95 -33 -218 -56 -272 -29 -69 -129 -160 -225 -206 l-78 -37 432
-3 432 -2 40 -48 41 -47 -460 -3 c-253 -1 -460 -6 -460 -10 0 -4 7 -15 14 -24
12 -17 49 -18 520 -18 l507 0 -83 90 c-45 50 -89 90 -97 90 -34 0 -182 82
-224 124 -57 58 -85 118 -110 241 -19 94 -20 146 -24 845 -2 530 0 741 7 730
6 -8 26 -45 45 -81 l34 -66 3 -699 c4 -678 5 -701 25 -776 37 -131 84 -207
161 -258 25 -16 49 -30 54 -30 17 0 7 16 -22 35 -42 28 -98 112 -121 182 -32
97 -40 277 -37 865 l3 556 80 -156 c44 -85 130 -253 191 -371 123 -241 408
-797 524 -1024 l75 -147 157 2 158 3 3 960 c4 1070 3 1052 72 1192 31 62 47
81 111 131 41 32 97 69 124 83 27 13 50 27 50 32 0 4 -187 7 -415 7 -228 0
-415 -2 -415 -4 0 -2 30 -21 68 -42 87 -49 165 -123 190 -182 39 -91 45 -173
49 -779 3 -321 1 -583 -4 -583 -4 0 -86 154 -182 343 -95 188 -250 492 -343
675 -93 183 -168 338 -165 345 2 7 51 43 108 81 57 38 106 71 108 73 3 2 -4
13 -16 24 l-21 21 -60 -43 c-33 -24 -92 -66 -131 -92 l-70 -48 73 -142 c40
-78 131 -254 201 -392 70 -137 179 -351 243 -475 63 -124 148 -289 188 -367
l74 -142 0 -95 c0 -53 -3 -96 -7 -96 -5 0 -54 91 -111 203 -367 722 -710 1393
-749 1465 -18 34 -32 66 -29 71 3 4 59 43 125 87 67 43 121 82 121 87 0 4
-209 7 -465 7 -256 0 -465 -3 -464 -7z"/>
<path d="M4201 6303 c1 -5 56 -58 123 -119 l121 -111 2 -979 3 -979 -115 -95
c-63 -52 -120 -96 -125 -98 -54 -19 98 -22 960 -22 534 0 970 4 970 8 0 5 -9
17 -20 27 -26 24 -96 130 -144 218 -37 69 -110 240 -161 376 l-28 74 -22 -84
c-30 -111 -49 -161 -85 -224 -65 -114 -173 -193 -315 -231 -55 -15 -105 -19
-230 -19 l-160 0 -3 980 -2 980 92 92 c89 90 91 93 79 120 l-12 27 -105 -105
-104 -106 0 -992 0 -992 -47 3 -48 3 -3 994 -2 993 137 134 138 133 -447 1
c-247 0 -448 -3 -447 -7z"/>
<path d="M6480 6302 c0 -4 61 -57 135 -117 l134 -110 1 -395 0 -395 -76 -13
c-88 -14 -180 -58 -224 -109 -30 -34 -90 -143 -90 -163 0 -6 12 -3 28 8 81 57
174 90 285 99 l77 6 0 -35 0 -35 -82 -18 c-95 -20 -205 -66 -214 -90 -4 -8 -1
-22 5 -29 10 -12 19 -10 58 11 42 24 190 73 220 73 10 0 13 -82 13 -422 l-1
-423 -134 -100 c-74 -55 -134 -103 -134 -107 -1 -5 467 -8 1039 -8 572 0 1040
1 1040 3 0 2 -21 25 -46 53 -164 174 -229 289 -295 518 l-14 49 -80 -138 c-88
-151 -162 -233 -249 -273 -81 -38 -226 -62 -413 -69 l-173 -6 0 461 0 462 200
0 c110 0 200 4 200 9 0 5 -11 16 -25 25 -21 14 -53 16 -222 14 l-198 -3 -3
-482 -2 -483 -60 0 -60 0 0 520 0 520 257 -2 257 -3 116 -142 115 -142 3 195
c1 107 1 283 0 392 l-3 197 -115 -162 -115 -162 -173 -1 -172 0 2 352 3 353
100 12 c126 15 222 16 322 2 92 -12 132 -31 232 -107 40 -32 83 -64 94 -72
l21 -15 -19 32 c-26 45 -98 119 -143 147 -83 52 -138 61 -392 61 -129 0 -243
-3 -252 -7 -17 -7 -18 -35 -18 -383 l0 -375 -60 0 -60 0 0 424 0 425 53 6 c28
3 156 4 282 2 407 -7 490 -46 617 -294 29 -56 55 -103 59 -103 3 0 20 37 39
83 18 45 49 111 68 147 44 82 175 281 202 305 11 10 20 22 20 27 0 4 -445 8
-990 8 -544 0 -990 -3 -990 -8z"/>
<path d="M8469 6148 c-82 -108 -161 -237 -219 -355 -50 -100 -51 -105 -35
-123 17 -19 20 -16 74 93 60 118 111 201 204 331 32 43 57 82 57 86 0 3 -6 14
-13 24 -12 16 -18 11 -68 -56z"/>
<path d="M3866 6159 c-89 -21 -182 -83 -213 -143 -49 -95 -47 -47 -50 -1168
l-4 -1048 -183 0 c-100 0 -186 -3 -189 -6 -3 -4 -2 -15 4 -25 9 -18 25 -19
214 -19 l205 0 0 1023 c1 1066 3 1125 44 1204 22 43 88 97 137 113 49 17 89
46 89 66 0 16 0 16 -54 3z"/>
<path d="M7960 5156 c0 -375 2 -414 16 -420 9 -4 18 -5 20 -3 6 6 5 817 -1
827 -3 6 -13 10 -21 10 -12 0 -14 -60 -14 -414z"/>
<path d="M5944 4488 c3 -7 9 -22 13 -33 3 -11 35 -78 70 -148 51 -104 133
-236 237 -381 6 -9 1 -33 -14 -70 l-24 -56 -981 0 c-540 0 -984 -3 -987 -6 -4
-3 2 -14 13 -25 18 -18 47 -19 999 -19 l979 0 41 84 42 83 -50 69 c-74 101
-170 266 -227 387 -34 71 -58 109 -73 116 -31 15 -45 14 -38 -1z"/>
<path d="M8346 4427 c34 -111 174 -317 312 -459 l55 -57 -29 -55 -29 -56
-1016 0 c-559 0 -1018 -3 -1022 -6 -3 -3 -1 -15 6 -25 11 -18 42 -19 1037 -19
l1025 0 46 83 46 82 -89 95 c-103 110 -194 236 -252 346 -32 61 -47 79 -69 85
-25 7 -27 6 -21 -14z"/>
</g>
</svg>
