<svg width="86" height="87" viewBox="0 0 86 87" fill="none" xmlns="http://www.w3.org/2000/svg">
<path d="M40.4195 0.127136C40.0969 0.223904 40.0754 0.245408 40.2905 0.288416C40.4733 0.320673 40.527 0.395936 40.527 0.643233C40.527 0.912033 40.484 0.955041 40.2152 0.955041C39.7314 0.955041 39.1938 1.38512 39.1508 1.80445C39.0863 2.44957 39.7529 2.85815 40.2905 2.50333C40.484 2.37431 40.5808 2.36355 40.613 2.43882C40.6345 2.51408 40.8496 2.56784 41.0969 2.56784C41.4194 2.56784 41.5055 2.53559 41.3872 2.46032C41.2689 2.38506 41.2152 2.084 41.1937 1.17008C41.1506 -0.141664 41.1721 -0.109408 40.4195 0.127136ZM40.4625 1.30986C40.5915 1.40663 40.6453 1.55715 40.613 1.8152C40.5808 2.13776 40.5378 2.19152 40.2797 2.22378C39.8927 2.26679 39.6669 2.084 39.6669 1.71843C39.6669 1.21309 40.0647 1.01955 40.4625 1.30986Z" fill="#F9F0DC"/>
<path d="M44.7311 1.03029C44.9031 1.22382 44.8708 2.21301 44.6988 2.42805C44.6128 2.53557 44.7203 2.56783 45.1611 2.56783C45.516 2.56783 45.688 2.52482 45.602 2.47106C45.516 2.42805 45.4729 2.25602 45.4944 2.08399L45.5267 1.79368L46.032 2.23451C46.3869 2.55707 46.6234 2.67535 46.8707 2.67535H47.2148L46.6664 2.18075C46.3654 1.91195 46.1181 1.6539 46.1181 1.6109C46.1181 1.50338 46.8277 1.17006 47.0642 1.15931C47.1718 1.15931 47.1288 1.10555 46.946 1.04104C46.6987 0.955024 46.5804 0.98728 46.1288 1.26683C45.5052 1.66466 45.4729 1.67541 45.4729 1.33134C45.4729 1.14856 45.5375 1.06254 45.6665 1.05179C45.8708 1.04104 45.1074 0.858255 44.7848 0.858255C44.6128 0.847503 44.602 0.869007 44.7311 1.03029Z" fill="#F9F0DC"/>
<path d="M36.6563 1.35286C36.1832 1.53565 35.9037 1.8367 35.9037 2.18077C35.9037 2.81514 36.4413 3.08394 37.3552 2.8904C38.1079 2.72912 38.1186 2.56784 37.3767 2.6431C36.9144 2.68611 36.7638 2.66461 36.6026 2.50333C36.409 2.29904 36.4198 2.29904 37.0434 2.18077C37.7745 2.05174 37.9466 1.97648 37.9466 1.76144C37.9466 1.40662 37.1617 1.15932 36.6563 1.35286ZM37.2584 1.67542C37.4412 1.85821 37.4305 1.86896 37.1294 1.93347C36.5918 2.05174 36.4413 2.04099 36.4413 1.86896C36.4413 1.77219 36.5488 1.65392 36.6886 1.60016C37.0219 1.47113 37.0434 1.47113 37.2584 1.67542Z" fill="#F9F0DC"/>
<path d="M48.8384 1.38511C48.5051 1.52489 48.5266 1.64316 48.8706 1.55715C49.2577 1.46038 49.5588 1.57865 49.5588 1.82595C49.5588 1.99798 49.4835 2.03023 49.0427 2.03023C48.7631 2.03023 48.4728 2.08399 48.3975 2.15926C48.0105 2.54633 48.5481 3.03017 49.1394 2.81513C49.3867 2.71836 49.4512 2.72912 49.4512 2.83664C49.4512 2.9119 49.6018 2.99792 49.7845 3.04093C50.2576 3.12694 50.3974 3.11619 50.1931 2.99792C50.0534 2.9119 50.0318 2.80438 50.1071 2.43881C50.2576 1.67542 50.2361 1.60015 49.8276 1.42812C49.4082 1.25609 49.1824 1.24534 48.8384 1.38511ZM49.5373 2.32054C49.4942 2.53558 49.0534 2.6431 48.8921 2.48182C48.7201 2.30979 48.9029 2.13776 49.2469 2.13776C49.505 2.13776 49.5695 2.18076 49.5373 2.32054Z" fill="#F9F0DC"/>
<path d="M51.6876 1.77218C51.8489 1.84745 51.8489 1.97647 51.6984 2.67535C51.6231 3.05167 51.5263 3.21295 51.4081 3.22371C51.3113 3.23446 51.4726 3.29897 51.7629 3.37423C52.3005 3.50326 52.5155 3.49251 52.279 3.34198C52.193 3.28822 52.1715 3.14844 52.2252 2.95491L52.3112 2.6431L52.5693 2.96566C52.7198 3.13769 52.9134 3.37423 52.9994 3.50326C53.0854 3.63228 53.3327 3.77206 53.537 3.80432C53.9563 3.89033 53.9671 3.95484 53.2789 3.08393L52.8811 2.57858L53.2897 2.47106C53.5155 2.40655 53.8165 2.34204 53.9671 2.32054C54.2251 2.28828 54.2251 2.27753 53.9133 2.19151C53.6768 2.127 53.4295 2.15926 52.9779 2.33129C52.365 2.54633 52.3543 2.54633 52.3543 2.34204C52.3543 2.22377 52.4618 2.09474 52.5908 2.04098C52.8273 1.95497 52.8273 1.95497 52.6231 1.89045C52.3112 1.79369 51.5263 1.69692 51.6876 1.77218Z" fill="#F9F0DC"/>
<path d="M33.5382 1.93347C32.9361 2.18077 32.6028 2.78288 32.8716 3.16995C33.0006 3.37424 33.3984 3.53552 33.7425 3.53552C34.1188 3.53552 34.936 3.23447 34.936 3.09469C34.936 3.04093 34.8069 3.05168 34.6564 3.10544C34.2586 3.25597 33.6887 3.23447 33.5489 3.06243C33.3877 2.87965 33.4414 2.84739 34.1618 2.67536C34.8284 2.52483 34.979 2.29904 34.6242 2.00873C34.3554 1.79369 33.9575 1.77219 33.5382 1.93347ZM34.2586 2.30979C34.2801 2.3743 34.0758 2.47107 33.807 2.53558C33.3769 2.63235 33.3232 2.6216 33.3232 2.44957C33.3232 2.3528 33.3877 2.23453 33.4629 2.20227C33.678 2.11625 34.2156 2.18077 34.2586 2.30979Z" fill="#F9F0DC"/>
<path d="M30.2911 2.89039C30.1191 3.01942 29.9793 3.06243 29.9363 3.00867C29.8718 2.89039 29.1299 3.19145 29.1299 3.34198C29.1299 3.38499 29.1944 3.39574 29.2804 3.36348C29.3879 3.32047 29.4847 3.471 29.6245 3.91184C29.7965 4.43868 29.7965 4.53545 29.6675 4.62147C29.4632 4.76124 29.9363 4.67523 30.3879 4.48169C30.6029 4.39568 30.6459 4.35267 30.5169 4.32041C30.4094 4.29891 30.2803 4.07312 30.2051 3.79356C30.0546 3.25596 30.1298 3.10543 30.6029 3.10543C30.7857 3.10543 30.8717 3.21295 31.0115 3.64303C31.1083 3.93334 31.248 4.18064 31.3125 4.18064C31.5813 4.18064 31.9254 4.04086 31.9254 3.94409C31.9254 3.89033 31.8824 3.86883 31.8286 3.91184C31.7749 3.94409 31.6351 3.68604 31.5276 3.35273C31.3448 2.76137 31.3125 2.72911 30.947 2.69686C30.6889 2.67535 30.4846 2.73987 30.2911 2.89039Z" fill="#F9F0DC"/>
<path d="M55.1498 2.99793C54.7089 3.43876 54.9132 4.06237 55.5798 4.33118C56.2035 4.57847 56.612 4.54622 56.9238 4.23441C57.3969 3.77207 57.2356 3.23447 56.5475 2.95492C55.9562 2.71837 55.4186 2.72912 55.1498 2.99793ZM56.4508 3.22372C56.612 3.385 56.655 3.52477 56.6013 3.72906C56.4615 4.29892 56.1604 4.42794 55.7089 4.11613C55.4293 3.9226 55.4078 3.57853 55.6444 3.23447C55.8486 2.93341 56.1604 2.93341 56.4508 3.22372Z" fill="#F9F0DC"/>
<path d="M59.7731 3.6968C60.4075 4.04087 60.687 4.04087 60.1817 3.6968C59.9667 3.54627 59.6764 3.428 59.5366 3.428C59.343 3.43875 59.3861 3.49251 59.7731 3.6968Z" fill="#F9F0DC"/>
<path d="M58.3754 3.64303C58.3754 3.69679 58.4291 3.75056 58.4829 3.77206C58.5581 3.79356 58.4936 4.09462 58.3323 4.53545L58.0528 5.25584H58.3216C58.4614 5.25584 58.913 5.13756 59.3 4.98704C59.6979 4.83651 60.0312 4.72899 60.0527 4.75049C60.1279 4.82576 59.6549 5.68592 59.5366 5.68592C59.3538 5.69667 60.0957 6.10525 60.3 6.116C60.3967 6.116 60.4075 6.07299 60.343 5.97622C60.1925 5.79344 60.6978 4.71824 60.9344 4.71824C61.0634 4.70748 61.0419 4.66448 60.8483 4.55696C60.472 4.34192 60.3322 4.35267 59.5688 4.67523C59.1925 4.82576 58.87 4.92252 58.8484 4.90102C58.7409 4.7935 59.1495 4.07312 59.3108 4.07312C59.4076 4.07312 59.4506 4.04086 59.4076 3.99785C59.2678 3.85808 58.3754 3.55702 58.3754 3.64303Z" fill="#F9F0DC"/>
<path d="M25.743 4.55696C25.571 4.64298 25.2914 4.72899 25.1409 4.76125C24.442 4.91178 23.9797 5.72893 24.5173 5.8687C24.6893 5.91171 24.7216 5.98698 24.6786 6.18051C24.6356 6.33104 24.6678 6.46007 24.7538 6.51383C24.8398 6.55683 24.8936 6.73962 24.8936 6.9224C24.8829 7.14819 24.9366 7.24496 25.0764 7.27722C25.8075 7.42775 26.7644 6.78263 26.7644 6.15901C26.7644 5.67517 26.5494 5.5999 25.915 5.8472C25.2162 6.116 24.9366 6.15901 24.9366 6.01923C24.9366 5.95472 25.0441 5.85795 25.1839 5.80419C25.5387 5.66442 25.9473 5.19133 25.872 4.99779C25.829 4.89027 25.8828 4.78275 26.0118 4.71824C26.2161 4.61072 26.3129 4.38493 26.1516 4.40643C26.0978 4.40643 25.9258 4.47094 25.743 4.55696ZM25.3452 5.2881C25.3882 5.50314 25.0764 5.65366 24.9151 5.49238C24.7538 5.3311 24.9044 5.0193 25.1194 5.0623C25.2269 5.08381 25.3237 5.18058 25.3452 5.2881ZM26.3129 6.40631C26.3559 6.68586 25.9688 6.97616 25.5602 6.97616C24.9904 6.97616 25.0549 6.54608 25.6677 6.29879C26.1516 6.10525 26.2699 6.12675 26.3129 6.40631Z" fill="#F9F0DC"/>
<path d="M63.7191 6.08375C63.6009 6.19127 63.6331 6.46007 63.7514 6.38481C63.8374 6.33105 64.2137 6.46007 64.375 6.59985C64.4288 6.64286 64.0739 7.32023 63.8912 7.53527C63.8051 7.63204 63.6546 7.6858 63.5578 7.65355C63.2675 7.54603 63.5363 7.77182 64.1062 8.09438C64.3858 8.25566 64.6115 8.34167 64.6115 8.27716C64.6115 8.2234 64.547 8.15889 64.4825 8.13739C64.332 8.08363 64.6438 7.27722 64.8911 7.07294C65.0631 6.93316 65.4717 7.1267 65.4717 7.35249C65.4717 7.56753 65.6437 7.55678 65.7298 7.34174C65.8158 7.11594 65.9125 7.20196 64.7943 6.55684C63.7406 5.94397 63.8159 5.98698 63.7191 6.08375Z" fill="#F9F0DC"/>
<path d="M22.1733 6.22353C22.0443 6.27728 21.8615 6.43856 21.754 6.59984C21.6357 6.78263 21.5389 6.83639 21.4529 6.77188C21.3777 6.70736 21.2379 6.76112 21.0444 6.9224C20.7218 7.20196 20.6573 7.32023 20.8938 7.23421C21.0766 7.1697 21.6465 8.10512 21.5605 8.33092C21.4852 8.5352 21.5389 8.52445 22.0335 8.21264C22.4636 7.94384 22.5926 7.79332 22.3131 7.90084C22.1626 7.9546 21.711 7.30948 21.711 7.02992C21.711 6.8794 22.0228 6.6536 22.2378 6.6536C22.3023 6.6536 22.4851 6.85789 22.6357 7.10519C22.7969 7.36324 22.9367 7.57828 22.9475 7.59978C22.969 7.62128 23.141 7.54602 23.3453 7.44925C23.5711 7.32023 23.6463 7.24496 23.5388 7.22346C23.4528 7.20196 23.2378 6.95466 23.055 6.67511C22.7109 6.14826 22.5604 6.06225 22.1733 6.22353Z" fill="#F9F0DC"/>
<path d="M18.5069 7.42776C18.3242 7.61054 18.3457 7.80408 18.5607 7.87934C18.7757 7.96536 19.1951 7.58904 19.0876 7.417C18.9908 7.25572 18.6682 7.26647 18.5069 7.42776Z" fill="#F9F0DC"/>
<path d="M18.9262 8.2879C18.5822 8.58896 18.5714 8.62121 18.8187 8.5567C19.0338 8.50294 19.1305 8.56745 19.3886 8.93302C19.6466 9.29859 19.6789 9.40611 19.5821 9.56739C19.3993 9.84695 19.4961 9.82544 20.0552 9.44912C20.5283 9.11581 20.6573 8.97603 20.3885 9.08355C20.3025 9.11581 20.0875 8.90077 19.8509 8.5352C19.6251 8.21264 19.4101 7.94384 19.3671 7.94384C19.3241 7.94384 19.1305 8.10512 18.9262 8.2879Z" fill="#F9F0DC"/>
<path d="M66.3964 8.39543C66.2029 8.67498 66.1813 9.0513 66.3319 9.3416C66.4824 9.62116 67.3103 10.0942 67.6436 10.0942C68.0415 10.0942 68.3963 9.65341 68.3533 9.22333C68.278 8.42768 66.805 7.80406 66.3964 8.39543ZM67.7189 8.73949L67.9662 9.00829L67.7619 9.36311C67.5038 9.81469 67.2996 9.84695 66.9125 9.52439L66.6007 9.25559L66.7942 8.86852C67.0093 8.39543 67.3533 8.35242 67.7189 8.73949Z" fill="#F9F0DC"/>
<path d="M15.1738 9.88995C14.948 10.1695 14.9372 10.2018 15.12 10.2018C15.3888 10.2125 16.507 11.6425 16.464 11.9328C16.4425 12.1371 16.4855 12.1156 16.8834 11.8038C17.2704 11.492 17.3027 11.4382 17.1307 11.3737C17.0124 11.3307 16.8188 11.1479 16.6791 10.9652C16.4963 10.7071 16.464 10.5888 16.5393 10.4276C16.7543 10.0297 17.0124 10.0512 17.4102 10.5136C17.8403 11.0082 17.9048 11.0297 18.2489 10.7501C18.4962 10.5351 18.5822 10.3415 18.3671 10.4813C18.2919 10.5243 18.0553 10.3415 17.7865 10.0405C17.3457 9.52439 17.3349 9.51363 16.9909 9.66416C16.7758 9.75018 16.5715 9.94371 16.464 10.1588L16.3027 10.5136L15.9264 10.0405C15.7221 9.77168 15.5286 9.55664 15.4856 9.56739C15.4533 9.56739 15.3136 9.70717 15.1738 9.88995Z" fill="#F9F0DC"/>
<path d="M71.6325 11.1587C71.1917 11.4275 70.7401 12.1049 70.7401 12.4812C70.7401 12.836 71.2562 13.4596 71.7078 13.6424C72.3422 13.9112 72.998 13.4274 72.8368 12.8145C72.7507 12.4704 72.0949 11.8146 71.8261 11.8146C71.5358 11.8146 71.4713 11.6855 71.6863 11.535C71.9981 11.2877 72.3207 11.3737 72.8368 11.8146C73.1056 12.0511 73.3959 12.2447 73.4819 12.2447C73.7399 12.2447 73.7614 12.0511 73.5249 11.9221C73.4066 11.8468 73.1271 11.6318 72.9013 11.4383C72.3852 10.9652 72.0626 10.9007 71.6325 11.1587ZM72.1379 12.2447C72.3959 12.5027 72.4067 12.7607 72.1809 13.0833C71.9874 13.3629 71.6433 13.3844 71.3637 13.1371C71.1057 12.9113 71.1164 12.5565 71.3852 12.2662C71.6648 11.9759 71.8583 11.9651 72.1379 12.2447Z" fill="#F9F0DC"/>
<path d="M13.4534 11.8576C13.3674 12.0511 13.3781 12.1586 13.4964 12.3414C13.5824 12.4704 13.6254 12.621 13.5824 12.6962C13.5287 12.7715 13.5502 12.7822 13.6362 12.7285C13.7222 12.6747 13.948 12.8145 14.2383 13.1048C14.6899 13.5456 14.7006 13.5564 15.0232 13.3844C15.1952 13.2983 15.3673 13.1156 15.3995 12.9758C15.4855 12.664 15.4425 12.6317 15.163 12.8038C14.9587 12.922 14.9049 12.9005 14.5931 12.5995L14.2491 12.2554L14.5071 11.9758C14.8082 11.6533 14.6791 11.6103 14.3458 11.9221L14.1093 12.1479L13.9265 11.8683C13.7007 11.535 13.6039 11.5243 13.4534 11.8576Z" fill="#F9F0DC"/>
<path d="M12.2707 13.7822C12.0019 14.0725 11.9697 14.2015 12.1847 14.1155C12.2815 14.0725 12.389 14.2123 12.4965 14.5456C12.5933 14.8144 12.647 15.0402 12.6148 15.0402C12.5825 15.0402 12.346 14.9864 12.0879 14.9219C11.7224 14.8251 11.6363 14.7606 11.6793 14.6208C11.7546 14.4058 11.0987 15.0079 10.9375 15.2875C10.8514 15.4595 10.8622 15.481 11.0127 15.3842C11.1417 15.3197 11.4643 15.352 12.0342 15.4918C12.7653 15.6745 12.8836 15.7391 12.9481 15.9756C12.9911 16.1584 12.9481 16.3197 12.8298 16.4487C12.6793 16.6207 12.6685 16.6852 12.7761 16.7927C12.8836 16.8895 12.9373 16.8788 13.0664 16.7175C13.2814 16.4164 13.2491 16.0831 12.9373 15.0939C12.7868 14.6208 12.6578 14.0725 12.647 13.8897C12.6255 13.4704 12.5718 13.4596 12.2707 13.7822Z" fill="#F9F0DC"/>
<path d="M73.9013 13.7929C73.9551 13.9542 73.8475 14.1263 73.4605 14.5241C73.0949 14.8897 72.9874 15.0724 73.0734 15.1585C73.1702 15.2552 74.2884 15.4488 74.8797 15.4703C75.0625 15.4703 75.0303 15.5348 74.6969 15.8466C74.4174 16.1046 74.2346 16.2014 74.1056 16.1476C73.9873 16.1046 74.0518 16.2337 74.2884 16.524C74.6217 16.9218 74.9442 17.1583 74.7615 16.8573C74.7292 16.7928 74.8797 16.5455 75.1055 16.3197C75.4388 15.9756 75.5786 15.9003 75.7936 15.9541L76.0517 16.0186L75.8474 15.7713C75.4711 15.3305 75.3313 15.2552 74.783 15.2445C74.4819 15.2337 74.1271 15.2015 73.9873 15.1585L73.74 15.0939L74.0626 14.7821C74.2561 14.5993 74.4497 14.5026 74.5464 14.5348C74.8367 14.6531 74.74 14.4596 74.2776 14.0187C73.9873 13.7392 73.8583 13.6639 73.9013 13.7929Z" fill="#F9F0DC"/>
<path d="M9.99129 16.4272C9.93753 16.5455 9.88377 16.7282 9.88377 16.8465C9.88377 16.9755 9.81925 17.0508 9.72249 17.0401C9.63647 17.0401 9.45368 17.1906 9.32466 17.3949C9.09887 17.7389 9.09887 17.7497 9.30316 17.6852C9.55045 17.6099 10.3138 18.1905 10.3138 18.4593C10.3138 18.5883 10.4106 18.5346 10.6472 18.2658C10.8192 18.0615 11.0235 17.7927 11.088 17.6744C11.1955 17.4701 11.1955 17.4701 11.002 17.6422C10.7977 17.8142 10.7762 17.8142 10.4429 17.5562C10.045 17.2336 10.0128 17.0616 10.3246 16.7498C10.4966 16.5777 10.5181 16.5025 10.4106 16.3734C10.2386 16.1691 10.1311 16.1799 9.99129 16.4272Z" fill="#F9F0DC"/>
<path d="M76.9441 17.3949C77.0409 17.7712 75.8366 18.2765 75.6323 17.9432C75.5356 17.7927 75.127 18.0292 75.1808 18.1905C75.2023 18.2658 75.3205 18.3088 75.4496 18.2873C75.6108 18.2658 75.7936 18.4056 76.1162 18.8141C76.7505 19.6205 76.9118 19.9539 76.7075 20.0614C76.6108 20.1259 76.5893 20.2012 76.6538 20.3087C76.729 20.4377 76.7828 20.4269 76.9763 20.2549C77.1269 20.1151 77.1591 20.0184 77.0839 19.9431C76.9118 19.7711 76.9441 19.7173 77.4709 19.3517C77.772 19.1259 78.03 19.0184 78.1698 19.0507C78.4064 19.1152 78.4171 19.1367 77.6215 18.0185C77.0301 17.1906 76.8473 17.0185 76.9441 17.3949ZM77.5139 18.2658C77.5892 18.4163 77.5139 18.5238 77.1376 18.7926L76.6753 19.1259L76.3312 18.6959C75.9979 18.2658 75.9979 18.2658 76.2452 18.2658C76.3742 18.2658 76.6323 18.169 76.8151 18.0507C77.1484 17.8357 77.3097 17.8895 77.5139 18.2658Z" fill="#F9F0DC"/>
<path d="M8.00222 19.1582C7.65815 19.5023 7.3571 20.2549 7.43236 20.599C7.45387 20.6957 7.59364 20.8678 7.75492 20.986C8.04523 21.2011 8.06673 21.2011 8.4323 21.0291C8.84087 20.8355 9.45374 19.9861 9.45374 19.6205C9.45374 19.47 9.35697 19.556 9.13118 19.9108C8.84087 20.3624 8.36779 20.6635 8.20651 20.4915C8.17425 20.4592 8.31403 20.1796 8.52907 19.8571C8.94839 19.2442 9.01291 18.9647 8.74411 18.8679C8.4538 18.7604 8.36779 18.7926 8.00222 19.1582ZM8.42155 19.427C8.49681 19.556 7.95921 20.3302 7.83019 20.2549C7.66891 20.1474 7.71191 19.9324 7.95921 19.6205C8.185 19.3302 8.32478 19.2765 8.42155 19.427Z" fill="#F9F0DC"/>
<path d="M78.2882 20.5882C77.9871 20.8033 77.9763 21.3516 78.2667 21.9107C78.7075 22.7816 79.4709 23.0289 79.9117 22.4376C80.1268 22.158 80.1268 22.1365 79.9332 21.6312C79.6967 21.0075 79.1376 20.4162 78.7828 20.4162C78.643 20.4162 78.4172 20.4915 78.2882 20.5882ZM79.3849 21.1258C79.6967 21.4269 79.7289 21.8247 79.4494 22.0505C79.0623 22.3623 78.7182 22.2978 78.514 21.8677C78.3419 21.5021 78.3419 21.4806 78.5892 21.2226C78.8795 20.9108 79.1483 20.8785 79.3849 21.1258Z" fill="#F9F0DC"/>
<path d="M6.12058 22.0505C5.93779 22.3838 5.91629 22.4698 6.04531 22.3623C6.15283 22.2763 6.2496 22.2333 6.2711 22.2548C6.29261 22.2763 6.44314 22.5343 6.60442 22.8247L6.91622 23.3515L6.48614 23.287C6.26035 23.244 5.9808 23.2117 5.86253 23.2117C5.7335 23.2117 5.69049 23.158 5.7335 23.0504C5.76576 22.9644 5.75501 22.8892 5.712 22.8892C5.64749 22.8892 5.15289 23.7708 5.15289 23.8891C5.15289 23.8999 5.58297 23.8999 6.10982 23.8783C6.96998 23.8461 7.06675 23.8246 7.17427 23.5988C7.26029 23.4053 7.20653 23.244 6.89472 22.7279C6.69043 22.3731 6.48614 21.9752 6.45389 21.8355C6.38938 21.5989 6.36787 21.6204 6.12058 22.0505Z" fill="#F9F0DC"/>
<path d="M80.9116 23.5773C80.9439 23.6633 80.7503 23.8246 80.3632 24.0289C79.8471 24.2977 79.7504 24.3192 79.6644 24.1794C79.4386 23.8246 79.5783 24.2869 79.8364 24.76C80.1052 25.2438 80.2557 25.4159 80.1375 25.1041C80.0944 25.0073 80.202 24.889 80.4063 24.7815L80.7396 24.6095L81.0084 25.1471C81.1589 25.4374 81.2772 25.6954 81.2772 25.7169C81.2772 25.7492 81.1266 25.8244 80.9439 25.8997C80.6643 26.018 80.5998 26.018 80.5138 25.889C80.4385 25.7599 80.417 25.7599 80.4278 25.8997C80.4278 26.147 80.9439 27.0609 80.9546 26.8351C80.9546 26.5663 82.0191 26.0825 82.2341 26.2653C82.3524 26.362 82.3739 26.3298 82.2986 26.1148C82.2556 25.9642 82.1266 25.6739 82.0191 25.4696C81.8578 25.1686 81.8255 25.1363 81.8148 25.3191C81.8148 25.5126 81.632 25.6847 81.4277 25.6847C81.3954 25.6847 81.2557 25.4266 81.1159 25.1256C80.8901 24.631 80.8793 24.545 81.0191 24.4697C81.1051 24.4159 81.2557 24.4052 81.3417 24.4374C81.4277 24.4697 81.4922 24.4697 81.4922 24.4482C81.4922 24.3192 81.0084 23.4267 80.9331 23.4267C80.8901 23.4267 80.8793 23.4913 80.9116 23.5773Z" fill="#F9F0DC"/>
<path d="M4.49703 25.3729C3.94868 25.9212 3.77665 27.147 4.20673 27.448C4.5723 27.7061 4.81959 27.6523 5.20667 27.2437C5.56148 26.8674 5.97006 25.9105 5.87329 25.6524C5.84104 25.5772 5.79803 25.5987 5.74427 25.7384C5.45396 26.4911 5.35719 26.6524 5.1099 26.8244C4.94862 26.9212 4.79809 26.9749 4.75508 26.9427C4.72282 26.8997 4.81959 26.5771 4.98087 26.2223C5.34644 25.3729 5.34644 25.1471 4.99163 25.1471C4.8411 25.1471 4.62606 25.2438 4.49703 25.3729ZM4.8626 25.7492C4.95937 25.846 4.47553 26.7706 4.3465 26.7276C4.18522 26.6631 4.26049 26.1148 4.46478 25.889C4.65831 25.6739 4.75508 25.6417 4.8626 25.7492Z" fill="#F9F0DC"/>
<path d="M2.31436 29.7919C1.55097 31.8671 0.733813 35.3507 0.378997 38.0495C-1.01877 48.5972 1.4757 59.1557 7.43232 67.9079C8.96986 70.1658 10.5289 72.0366 12.6148 74.1333C16.0984 77.6062 19.6144 80.1436 23.9474 82.2941C37.8068 89.1646 54.3434 88.0249 67.1598 79.3157C69.4177 77.7782 71.2886 76.2192 73.3852 74.1333C75.4711 72.0366 77.0301 70.1658 78.5677 67.9079C84.5243 59.1557 87.0188 48.5972 85.621 38.0495C85.2662 35.3507 84.449 31.8671 83.6856 29.7919L83.5136 29.3404H82.3954C81.7825 29.3404 81.2772 29.3511 81.2772 29.3726C81.2772 29.3834 81.4707 29.9747 81.718 30.6844C82.6104 33.2971 83.3308 36.6087 83.6641 39.6085C83.8469 41.2966 83.8469 46.1995 83.6641 47.8876C82.5997 57.4676 78.5784 65.9187 71.8692 72.6172C65.1599 79.3265 56.7303 83.3477 47.1395 84.4122C45.4515 84.595 40.5485 84.595 38.8605 84.4122C29.2697 83.3477 20.8401 79.3265 14.1308 72.6172C7.42157 65.9187 3.40031 57.4676 2.33586 47.8876C2.2606 47.1457 2.19609 45.3931 2.19609 43.7481C2.19609 42.103 2.2606 40.3504 2.33586 39.6085C2.66918 36.6195 3.37881 33.3401 4.28198 30.6844C4.52928 29.9747 4.72281 29.3834 4.72281 29.3726C4.72281 29.3511 4.21747 29.3404 3.6046 29.3404H2.48639L2.31436 29.7919Z" fill="#F9F0DC"/>
<path d="M5.70131 29.7382C5.70131 29.7919 6.29267 30.308 7.00231 30.8994L8.2818 31.9746V40.63C8.27104 45.3931 8.23879 49.5972 8.20653 49.9842C8.13127 51.0057 7.85172 52.3282 7.60442 52.9088C7.29261 53.6507 6.21741 54.6291 5.18521 55.1237L4.34656 55.5215L8.99143 55.5538L13.6363 55.5753L14.0664 56.0914L14.5072 56.5967L9.56129 56.629C6.84103 56.6397 4.61536 56.6935 4.61536 56.7365C4.61536 56.7795 4.69062 56.8978 4.76589 56.9945C4.89491 57.1773 5.29274 57.1881 10.3569 57.1881H15.8082L14.9158 56.2204C14.4319 55.6828 13.9589 55.2527 13.8728 55.2527C13.5073 55.2527 11.916 54.3711 11.4644 53.9195C10.8515 53.2959 10.5505 52.6507 10.2817 51.3282C10.0774 50.3175 10.0666 49.7584 10.0236 42.2428C10.0021 36.5442 10.0236 34.2755 10.0989 34.3938C10.1634 34.4798 10.3784 34.8777 10.5827 35.2647L10.9483 35.9744L10.9806 43.49C11.0236 50.7799 11.0343 51.0272 11.2494 51.8336C11.6472 53.2421 12.1525 54.0592 12.9804 54.6076C13.2492 54.7796 13.5073 54.9302 13.561 54.9302C13.7438 54.9302 13.6363 54.7581 13.3245 54.5538C12.8729 54.2528 12.2708 53.3496 12.0235 52.597C11.6794 51.554 11.5934 49.6187 11.6257 43.2965L11.6579 37.3184L12.5181 38.9957C12.9912 39.9096 13.9159 41.7159 14.5717 42.9847C15.8942 45.5759 18.9585 51.554 20.2058 53.9947L21.0122 55.5753L22.7003 55.5538L24.3991 55.5215L24.4313 45.1996C24.4743 33.6949 24.4636 33.8885 25.2055 32.3832C25.5388 31.7166 25.7108 31.5123 26.3989 30.9747C26.8398 30.6306 27.4419 30.2328 27.7322 30.0823C28.0225 29.9425 28.2698 29.7919 28.2698 29.7382C28.2698 29.6952 26.2592 29.6629 23.8077 29.6629C21.3562 29.6629 19.3456 29.6844 19.3456 29.7059C19.3456 29.7274 19.6682 29.9317 20.0768 30.1575C21.0122 30.6844 21.8508 31.48 22.1196 32.1144C22.539 33.0928 22.6035 33.9745 22.6465 40.4902C22.6787 43.9416 22.6572 46.7586 22.6035 46.7586C22.5605 46.7586 21.6788 45.1028 20.6466 43.0707C19.6252 41.0493 17.9586 37.7807 16.9587 35.8131C15.9587 33.8455 15.1523 32.1789 15.1846 32.1036C15.2061 32.0284 15.7329 31.6413 16.3458 31.2327C16.9587 30.8241 17.4855 30.4693 17.507 30.4478C17.5393 30.4263 17.464 30.308 17.335 30.1898L17.1092 29.964L16.4641 30.4263C16.1093 30.6844 15.4749 31.136 15.0556 31.4155L14.3029 31.9316L15.0878 33.4584C15.5179 34.297 16.4963 36.1894 17.249 37.6732C18.0016 39.1462 19.1736 41.4471 19.8617 42.7804C20.5391 44.1136 21.453 45.8877 21.8831 46.7264L22.6787 48.2532V49.2746C22.6787 49.8445 22.6465 50.3068 22.6035 50.3068C22.5497 50.3068 22.0229 49.3284 21.41 48.1241C17.464 40.3612 13.7761 33.1466 13.3567 32.3724C13.1632 32.0069 13.0127 31.6628 13.0449 31.609C13.0772 31.566 13.6793 31.1467 14.3889 30.6736C15.1093 30.2113 15.6899 29.7919 15.6899 29.7382C15.6899 29.6952 13.4428 29.6629 10.6902 29.6629C7.93773 29.6629 5.69056 29.6952 5.70131 29.7382Z" fill="#F9F0DC"/>
<path d="M32.0437 29.7382C32.0544 29.7919 32.6458 30.3618 33.3662 31.0177L34.6672 32.2112L34.6887 42.7374L34.7209 53.2636L33.4844 54.2851C32.8071 54.8442 32.1942 55.3172 32.1404 55.3388C31.5598 55.543 33.1941 55.5753 42.4624 55.5753C48.204 55.5753 52.8919 55.5323 52.8919 55.4893C52.8919 55.4355 52.7951 55.3065 52.6768 55.199C52.3973 54.9409 51.6446 53.8012 51.1285 52.855C50.7307 52.1131 49.9458 50.2746 49.3974 48.8123L49.0964 48.0166L48.8598 48.9198C48.5373 50.1133 48.333 50.6509 47.9459 51.3282C47.247 52.554 46.0858 53.4034 44.559 53.812C43.9677 53.9732 43.4301 54.0163 42.0861 54.0163H40.3657L40.3335 43.4793L40.312 32.9423L41.3012 31.9531C42.2581 30.9854 42.2796 30.9532 42.1506 30.6629L42.0216 30.3726L40.8926 31.5015L39.7744 32.6412V43.3072V53.9732L39.269 53.941L38.7529 53.9087L38.7207 43.2212L38.6992 32.5445L40.1722 31.1037L41.656 29.6737L36.8498 29.6629C34.1941 29.6629 32.0329 29.6952 32.0437 29.7382Z" fill="#F9F0DC"/>
<path d="M56.5475 29.7489C56.5475 29.7919 57.2034 30.3618 57.999 31.0069L59.4398 32.1896L59.4506 36.4367V40.6837L58.6334 40.8235C57.6872 40.974 56.698 41.4471 56.2249 41.9955C55.9024 42.3611 55.2573 43.533 55.2573 43.7481C55.2573 43.8126 55.3863 43.7803 55.5583 43.662C56.4292 43.0492 57.4292 42.6944 58.6226 42.5976L59.4506 42.5331V42.9094V43.2857L58.5689 43.4793C57.5474 43.6943 56.3647 44.1889 56.268 44.4469C56.2249 44.533 56.2572 44.6835 56.3217 44.7587C56.4292 44.8878 56.526 44.8663 56.9453 44.6405C57.3969 44.3824 58.9882 43.8556 59.3108 43.8556C59.4183 43.8556 59.4506 44.7372 59.4506 48.3929L59.4398 52.941L57.999 54.0162C57.2034 54.6076 56.5583 55.1237 56.5583 55.1667C56.5475 55.2205 61.5795 55.2527 67.7296 55.2527C73.8798 55.2527 78.9117 55.242 78.9117 55.2205C78.9117 55.199 78.6859 54.9517 78.4171 54.6506C76.6538 52.7798 75.9549 51.5433 75.2453 49.0811L75.0947 48.5542L74.2346 50.038C73.2884 51.6615 72.4927 52.5432 71.5573 52.9733C70.6864 53.3819 69.1274 53.6399 67.1167 53.7152L65.2566 53.7797V48.823V43.8556H67.407C68.5898 43.8556 69.5574 43.8126 69.5574 43.7588C69.5574 43.7051 69.4392 43.5868 69.2886 43.49C69.0629 43.3395 68.7188 43.318 66.9017 43.3395L64.7728 43.3717L64.7405 48.5542L64.719 53.7474H64.0739H63.4288V48.1564V42.5653L66.1921 42.5868L68.9553 42.6191L70.2026 44.1459L71.4391 45.6727L71.4713 43.576C71.4821 42.4256 71.4821 40.5332 71.4713 39.3612L71.4391 37.2431L70.2026 38.9849L68.9661 40.7267L67.106 40.7375H65.2566L65.2781 36.9528L65.3104 33.1573L66.3856 33.0283C67.7404 32.867 68.7726 32.8563 69.8478 33.0068C70.8369 33.1358 71.267 33.3401 72.3422 34.1573C72.7723 34.5013 73.2346 34.8454 73.3529 34.9314L73.5787 35.0927L73.3744 34.7486C73.0949 34.2648 72.3207 33.4691 71.8369 33.1681C70.9445 32.609 70.3531 32.5122 67.6221 32.5122C66.2351 32.5122 65.0093 32.5445 64.9126 32.5875C64.7298 32.6627 64.719 32.9638 64.719 36.7055V40.7375H64.0739H63.4288V36.1786V31.609L63.9987 31.5445C64.2997 31.5123 65.676 31.5015 67.0307 31.523C71.4068 31.5983 72.2992 32.0176 73.6647 34.6841C73.9765 35.2862 74.2561 35.7916 74.2991 35.7916C74.3313 35.7916 74.5141 35.3937 74.7184 34.8992C74.912 34.4153 75.2453 33.7057 75.4496 33.3186C75.9226 32.4369 77.3312 30.2973 77.6215 30.0392C77.7397 29.9317 77.8365 29.8027 77.8365 29.7489C77.8365 29.7059 73.0519 29.6629 67.192 29.6629C61.3429 29.6629 56.5475 29.6952 56.5475 29.7489Z" fill="#F9F0DC"/>
<path d="M77.9333 31.4048C77.0517 32.566 76.2022 33.953 75.5786 35.2217C75.041 36.2969 75.0303 36.3507 75.2023 36.5442C75.3851 36.7485 75.4173 36.7163 75.9979 35.5443C76.6431 34.2755 77.1914 33.3831 78.1914 31.9854C78.5354 31.523 78.8042 31.1037 78.8042 31.0607C78.8042 31.0284 78.7397 30.9102 78.6645 30.8026C78.5354 30.6306 78.4709 30.6844 77.9333 31.4048Z" fill="#F9F0DC"/>
<path d="M28.4417 31.2865C27.4848 31.5123 26.4849 32.1789 26.1516 32.824C25.6247 33.8455 25.6462 33.3294 25.614 45.3824L25.5709 56.6505H23.6033C22.5281 56.6505 21.6035 56.6827 21.5712 56.715C21.5389 56.758 21.5497 56.8763 21.6142 56.9838C21.711 57.1773 21.883 57.1881 23.9151 57.1881H26.1193V46.1888C26.1301 34.7271 26.1516 34.0928 26.5924 33.2434C26.8289 32.781 27.5386 32.2004 28.0654 32.0284C28.5923 31.8456 29.0223 31.5338 29.0223 31.3187C29.0223 31.1467 29.0223 31.1467 28.4417 31.2865Z" fill="#F9F0DC"/>
<path d="M72.4605 42.0707C72.4605 46.1028 72.482 46.5221 72.6325 46.5866C72.7293 46.6296 72.8261 46.6404 72.8476 46.6188C72.9121 46.5543 72.9013 37.8345 72.8368 37.7269C72.8046 37.6624 72.6971 37.6194 72.611 37.6194C72.482 37.6194 72.4605 38.2645 72.4605 42.0707Z" fill="#F9F0DC"/>
<path d="M50.7844 49.2531C50.8167 49.3284 50.8812 49.4896 50.9242 49.6079C50.9565 49.7262 51.3005 50.4466 51.6769 51.1992C52.2252 52.3174 53.1069 53.7367 54.2251 55.2957C54.2896 55.3925 54.2358 55.6505 54.0746 56.0484L53.8165 56.6505H43.2688C37.4627 56.6505 32.6888 56.6827 32.6566 56.715C32.6135 56.7472 32.6781 56.8655 32.7963 56.9838C32.9899 57.1773 33.3017 57.1881 43.5376 57.1881H54.0638L54.5046 56.2849L54.9562 55.3925L54.4186 54.6506C53.623 53.5647 52.5908 51.7906 51.9779 50.4896C51.6123 49.7262 51.3543 49.3176 51.193 49.2423C50.8597 49.0811 50.7092 49.0918 50.7844 49.2531Z" fill="#F9F0DC"/>
<path d="M76.6108 49.909C76.9764 51.1024 78.4817 53.3174 79.9654 54.8441L80.5568 55.457L80.245 56.0484L79.9332 56.6505H69.0091C62.9987 56.6505 58.0636 56.6827 58.0206 56.715C57.9883 56.7472 58.0098 56.8763 58.0851 56.9838C58.2033 57.1773 58.5367 57.1881 69.2349 57.1881H80.2557L80.7503 56.2957L81.2449 55.414L80.288 54.3926C79.1805 53.2098 78.2021 51.8551 77.5785 50.6724C77.2344 50.0165 77.0731 49.823 76.8366 49.7584C76.5678 49.6832 76.5463 49.6939 76.6108 49.909Z" fill="#F9F0DC"/>
</svg>
