<svg width="100" height="100" viewBox="0 0 100 100" fill="none" xmlns="http://www.w3.org/2000/svg">
<path d="M27.6367 0.0528321C25.8398 0.485334 25.3516 0.642607 24.4531 1.15375C23.1836 1.86147 21.7383 3.29659 21.0156 4.53512C20.1758 5.9899 19.8438 7.30706 19.8633 9.27298C19.8633 11.2782 20.293 12.6347 21.4062 14.3057C21.7773 14.8562 22.0703 15.328 22.0703 15.3673C22.0703 15.4066 21.6992 15.4853 21.25 15.5639C19.7266 15.7998 17.7148 16.9401 16.6211 18.1393C14.3945 20.577 14.2578 21.2847 14.2578 29.7578V36.5009H9.04297C5.82031 36.5009 3.51562 36.5796 3.02734 36.7172C1.99219 37.0121 0.507812 38.5061 0.214844 39.5481C0.0585938 40.0985 0 47.569 0 65.0264V89.6986L0.546875 90.7799C0.898438 91.4679 1.36719 92.038 1.91406 92.4312L2.77344 93.021L8.51562 93.08L14.2578 93.139V95.3015C14.2578 97.7589 14.5508 98.6435 15.6641 99.4495L16.3086 99.9017L28.6914 99.9607L41.0547 100L41.8945 99.5085C43.1836 98.7615 43.5547 97.8178 43.5547 95.2228V93.1193H45.3125C47.3438 93.1193 47.8516 92.8244 47.8516 91.6842C47.8516 90.5833 47.3242 90.2884 45.293 90.2097L43.5547 90.1311V88.0865V86.042H50H56.4453V88.0865V90.1311L54.6094 90.2097C52.4805 90.2884 51.9531 90.5636 51.9531 91.6842C51.9531 92.8441 52.4414 93.1193 54.5898 93.1193H56.4453V95.2228C56.4453 97.8178 56.8164 98.7615 58.1055 99.5085L58.9453 100L71.3086 99.9607L83.6914 99.9017L84.3359 99.4495C85.4492 98.6435 85.7422 97.7589 85.7422 95.3015V93.139L91.4844 93.08L97.2266 93.021L98.0664 92.4312C98.5938 92.0577 99.1211 91.4483 99.4531 90.7799L100 89.7379V77.3526C100 69.8035 99.9219 64.8494 99.8047 64.6332C99.707 64.4366 99.375 64.1614 99.043 64.0434C98.5742 63.8468 98.3789 63.8468 97.8906 64.1024C97.5781 64.2596 97.2656 64.5545 97.1875 64.7118C97.1289 64.8887 97.0703 68.8796 97.0703 73.5781V82.1298L96.582 82.6016L96.1133 83.0931H90.8594H85.625L85.3711 82.1102C84.668 79.3186 81.9531 76.8219 78.9648 76.1928C78.3984 76.0748 77.9297 75.9372 77.9297 75.8782C77.9297 75.8192 78.1641 75.5047 78.457 75.1508C79.6289 73.755 80.3906 71.16 80.2148 69.1548C79.7266 63.6502 75 59.8363 69.6875 60.6817C63.5156 61.645 60.0586 68.7813 63.1445 74.2268C63.3594 74.62 63.7109 75.1312 63.9258 75.3671C64.1406 75.6226 64.2969 75.8586 64.2383 75.8979C64.1992 75.9372 63.6133 76.1141 62.9297 76.2911C59.9414 77.0578 57.3633 79.6331 56.7578 82.464L56.6016 83.0931H50H43.3984L43.2422 82.464C42.832 80.5178 41.1133 78.2373 39.2188 77.1364C38.7109 76.8415 37.7539 76.468 37.0703 76.2911C36.3867 76.1141 35.8008 75.9372 35.7617 75.8979C35.7031 75.8586 35.8594 75.6226 36.0742 75.3671C38.1836 72.9883 38.5938 68.9189 37.0117 65.6948C34.2969 60.0722 26.8359 58.7944 22.5 63.2177C20.8594 64.8691 19.7266 67.5034 19.7266 69.6659C19.7266 71.4942 20.5469 73.9516 21.543 75.1508C21.8359 75.5047 22.0703 75.8192 22.0703 75.8782C22.0703 75.9372 21.6016 76.0748 21.0547 76.1928C18.0469 76.8219 15.332 79.3186 14.6289 82.1102L14.375 83.0931H9.14062H3.88672L3.41797 82.6016L2.92969 82.1298V61.2715V40.4131L3.41797 39.9413L3.88672 39.4498H15.5078H27.1094L27.1875 43.3423L27.2461 47.2545L27.832 48.1981C28.2617 48.9058 28.7109 49.3187 29.4727 49.7119C30.4883 50.2427 30.5859 50.2623 33.6914 50.2623H36.875L36.9531 54.1352C37.0117 57.9884 37.0117 58.0277 37.5586 58.9713C37.8516 59.4825 38.4766 60.1509 38.9062 60.4458L39.707 60.9766L45.4297 61.0749C48.5742 61.1338 51.1719 61.2125 51.2305 61.2715C51.2695 61.3304 52.5195 62.8638 54.0039 64.6725C55.5664 66.5991 56.8945 68.0735 57.207 68.1718C57.9297 68.447 58.8477 68.2308 59.3945 67.641C59.8438 67.1692 59.8633 66.9726 59.9609 64.1614L60.0586 61.1732L61.3281 61.0552C63.5156 60.8783 64.8438 59.6397 65.2539 57.4379C65.3906 56.7302 65.4297 54.548 65.3906 51.8351C65.332 48.1588 65.2539 47.2741 64.9805 46.6254C64.5312 45.6228 63.9648 45.033 62.9883 44.5022C62.2852 44.1287 61.8359 44.0697 58.8477 44.0107L55.4688 43.9321V41.6909V39.4498H75.7812H96.1133L96.582 39.9413L97.0703 40.4131V49.6332C97.0703 58.6764 97.0703 58.873 97.4805 59.3842C98.0273 60.0919 99.043 60.0919 99.5898 59.3842C100 58.873 100 58.6764 100 49.5939C100 43.4406 99.9219 40.0789 99.7852 39.5481C99.4922 38.5061 98.0078 37.0121 96.9727 36.7172C96.4844 36.5796 94.1797 36.5009 90.9766 36.5009H85.7422V29.7578C85.7422 21.2847 85.6055 20.577 83.3789 18.1393C82.2852 16.9401 80.2734 15.7998 78.7695 15.5639C78.3008 15.4853 77.9297 15.4066 77.9297 15.3673C77.9297 15.328 78.2227 14.8562 78.5938 14.3057C79.707 12.6347 80.1367 11.2782 80.1367 9.27298C80.1562 7.30706 79.8242 5.9899 78.9844 4.53512C77.8516 2.60852 75.6641 0.898176 73.5352 0.308401C72.2656 -0.0454637 69.9023 -0.0454637 68.6523 0.308401C64.3164 1.54693 61.4844 5.93092 62.1289 10.4525C62.3242 11.9073 63.1055 13.7946 63.9258 14.7775L64.3945 15.3477L63.0273 15.7015C60.6055 16.3306 58.7305 17.7657 57.5 19.9676C56.5625 21.6779 56.4453 22.6805 56.4453 29.8561V36.5009H55.957C55.5859 36.5009 55.4102 36.324 55.1172 35.6556C54.707 34.7316 53.7695 33.8469 52.793 33.4144C52.3242 33.2375 51.0352 33.1589 47.8516 33.1589H43.5547V28.1851C43.5547 22.7985 43.3984 21.5796 42.5 19.9676C41.2695 17.7657 39.3945 16.3306 36.9727 15.7015L35.6055 15.3477L36.0742 14.7775C36.8945 13.7946 37.6758 11.9073 37.8711 10.4525C38.4961 6.04888 35.8203 1.72386 31.6406 0.406697C30.7031 0.11181 28.2812 -0.104441 27.6367 0.0528321ZM31.4648 3.51284C36.9531 6.08819 35.8984 14.1288 29.9023 15.269C28.0469 15.6229 26.1328 15.0135 24.6289 13.598C23.3203 12.3595 22.7734 11.0816 22.7734 9.17468C22.7734 6.30444 24.2578 4.22057 27.0117 3.23762C28.3594 2.74614 30.0586 2.86409 31.4648 3.51284ZM73.6719 3.51284C75.9375 4.55478 77.2266 6.63865 77.2266 9.17468C77.2266 11.0816 76.6797 12.3595 75.3711 13.598C71.6797 17.058 65.9766 15.1511 65.0391 10.1576C64.668 8.23104 65.3125 6.20615 66.7383 4.79069C68.5938 2.90341 71.2695 2.41193 73.6719 3.51284ZM37.5195 19.0632C38.3008 19.4564 38.9844 20.0069 39.3945 20.5377C40.4688 21.9728 40.625 22.8575 40.625 27.8116V32.1956L38.3984 29.4826C37.1875 27.9885 35.9961 26.6124 35.7812 26.3961C35.2539 25.9243 34.0234 25.9046 33.3398 26.3568C32.5977 26.8679 32.4219 27.6346 32.4219 30.5245V33.1589H31.6211C29.7656 33.1589 28.0859 34.2401 27.5195 35.7932L27.2656 36.5009H25.3516H23.4375V31.6844C23.4375 27.1235 23.418 26.8483 23.0469 26.4747C22.4023 25.826 21.582 25.885 20.957 26.5927C20.5078 27.0842 20.5078 27.1825 20.5078 31.8024V36.5009H18.8477H17.168L17.2266 29.4629C17.2852 22.5429 17.2852 22.425 17.7344 21.56C18.4961 20.0855 19.375 19.3188 20.9961 18.6701C21.4062 18.5128 23.7891 18.4341 28.9453 18.4341L36.2891 18.4145L37.5195 19.0632ZM79.6875 18.9649C80.8594 19.594 81.6797 20.4001 82.2461 21.5206C82.7148 22.4446 82.7148 22.4839 82.7734 29.4629L82.832 36.5009H81.1523H79.4922V31.8024C79.4922 27.1825 79.4922 27.0842 79.0625 26.5927C78.418 25.885 77.5977 25.826 76.9531 26.4747C76.582 26.8483 76.5625 27.1235 76.5625 31.6844V36.5009H71.0938H65.625V31.7041C65.625 27.4184 65.5859 26.8679 65.2734 26.4944C64.8047 25.9046 63.7891 25.885 63.2227 26.4551C62.8125 26.8679 62.793 27.0449 62.7344 31.6844L62.6758 36.5009H61.0352H59.375V29.9544C59.375 22.6609 59.4531 22.0711 60.6055 20.5377C61.0156 20.0069 61.6992 19.4564 62.4805 19.0436L63.7305 18.3948L71.2695 18.4538C78.7305 18.5128 78.8086 18.5128 79.6875 18.9649ZM37.168 32.6084C39.2578 35.1444 39.8047 35.6752 40.6445 35.9111C40.9961 36.0291 43.6523 36.1077 46.5234 36.1077C51.5039 36.1077 51.7773 36.1274 52.1484 36.5009C52.5195 36.8744 52.5391 37.1497 52.5391 40.4327V43.9714H46.6602C42.7539 43.9714 40.5078 44.05 40.0195 44.2073C39.0039 44.5022 37.793 45.5638 37.3828 46.5271L37.0312 47.3135H34.0039C29.7656 47.3135 30.0781 47.7656 30.0781 41.7106C30.0781 36.0291 30 36.206 32.4219 36.0684C34.8828 35.9111 35.3516 35.341 35.3516 32.4904C35.3516 31.4485 35.3906 30.6032 35.4297 30.6032C35.4883 30.6032 36.2695 31.5075 37.168 32.6084ZM62.0312 47.3921C62.2461 47.7066 62.3047 48.7486 62.3047 52.6214C62.3047 58.3226 62.4219 58.008 60.1172 58.185C57.6758 58.3619 57.2266 58.873 57.0508 61.704L56.9336 63.6699L55.0195 61.3108C53.7891 59.7774 52.8516 58.8337 52.3828 58.5978C51.7383 58.2636 51.0742 58.2243 46.3867 58.1653C43.4961 58.1456 40.918 58.0867 40.7031 58.0277C39.9219 57.8508 39.8242 57.1037 39.8828 52.2479C39.9414 47.687 39.9414 47.6673 40.4102 47.2938C40.8594 46.9203 41.25 46.9203 51.3086 46.9596C61.3867 47.0186 61.7578 47.0382 62.0312 47.3921ZM30.1172 63.6502C31.4258 63.9254 32.0508 64.2596 33.0273 65.1443C34.6289 66.5991 35.332 68.7026 34.9414 70.8455C34.707 72.1823 34.1016 73.2832 33.0664 74.2858C30.7422 76.5466 26.8555 76.468 24.5312 74.1285C22.1484 71.7301 22.1484 67.7 24.5312 65.3409C25.4297 64.4366 26.4844 63.8665 27.5977 63.6306C28.7695 63.4143 28.9648 63.4143 30.1172 63.6502ZM73.7305 64.1024C77.5586 65.8717 78.457 71.101 75.4688 74.1285C73.1445 76.468 69.2578 76.5466 66.9336 74.2858C65.332 72.7327 64.668 70.7079 65.0586 68.6043C65.3125 67.2282 65.625 66.5991 66.543 65.5965C68.3789 63.5323 71.2109 62.9425 73.7305 64.1024ZM37.0117 79.3775C38.3398 79.869 39.6875 81.1862 40.1758 82.4444C40.4883 83.2897 40.5273 84.0564 40.5273 90.1704V96.9528L38.9258 97.0118L37.3242 97.0708L37.2656 92.2543C37.207 87.8703 37.168 87.4181 36.8359 87.0446C36.3477 86.5138 35.293 86.4942 34.7656 87.025C34.3945 87.3985 34.375 87.6737 34.375 92.2346V97.0511H28.9062H23.4375V92.274C23.4375 87.7327 23.418 87.4771 23.0469 87.0643C22.4609 86.4352 21.4453 86.4745 20.918 87.1429C20.5273 87.6344 20.5078 87.9096 20.5078 92.3526V97.0511H18.8477H17.1875V90.4063C17.1875 86.6711 17.2656 83.4863 17.3828 83.0931C17.6758 81.9922 18.6523 80.6161 19.5117 80.0263C21.0547 79.004 21.25 78.9844 28.8477 78.9647C35.5273 78.9647 35.9766 78.9844 37.0117 79.3775ZM79.6094 79.4955C80.8398 80.1639 81.5039 80.793 82.1289 81.9529L82.7148 82.9948L82.7734 90.0131L82.832 97.0511H81.1523H79.4922V92.3526C79.4922 87.9096 79.4727 87.6344 79.082 87.1429C78.5547 86.4745 77.5391 86.4352 76.9531 87.0643C76.582 87.4771 76.5625 87.7327 76.5625 92.274V97.0511H71.0938H65.625V92.2346C65.625 87.6737 65.6055 87.3985 65.2344 87.025C64.707 86.4942 63.6523 86.5138 63.1641 87.0446C62.832 87.4181 62.793 87.8703 62.7344 92.2543L62.6758 97.0708L61.0742 97.0118L59.4727 96.9528V90.1704C59.4727 82.4247 59.5117 82.2085 61.0547 80.6554C62.6953 79.004 62.8711 78.9647 71.3867 79.0237C78.6133 79.063 78.8281 79.0827 79.6094 79.4955ZM9.04297 86.042H14.2578V88.1062V90.1704H8.98438C2.59766 90.1704 2.92969 90.308 2.92969 87.5558C2.92969 85.8257 2.92969 85.8061 3.37891 85.924C3.61328 85.983 6.15234 86.042 9.04297 86.042ZM97.0703 87.5754C97.0703 90.308 97.4023 90.1704 91.0156 90.1704H85.7422V88.1062V86.042L91.1719 85.983C94.1406 85.9634 96.6992 85.924 96.8359 85.8847C97.0117 85.8651 97.0703 86.2976 97.0703 87.5754Z" fill="white"/>
</svg>
