<svg width="512" height="292" viewBox="0 0 512 292" fill="none" xmlns="http://www.w3.org/2000/svg">
<path d="M211.5 0.699983C202.5 1.39998 191.3 3.29998 187 4.69998C181 6.79998 174.3 11.5 171.9 15.3C169.2 19.8 169.5 20.7 173.8 21.5C178.7 22.4 187.9 26.6 190.8 29.3C194.5 32.7 197.7 39.9 199.6 49.1C201.9 60.2 202.2 106.1 200.1 119C195.9 144.9 185.8 149.9 170.4 133.8C153.4 116.1 127.1 71.5 110.9 33C105.8 21 102.4 17 95.1 14.5C90.7 13.1 85.3 12.9 50.3 13.2C6.80002 13.5 5.20002 13.7 1.40002 19.4C-2.09998 24.8 1.30002 33.7 24.8 80.5C57.6 146.2 89.7 196.1 120.7 229.7C151.6 263.4 192.1 284.7 235 290C240.5 290.7 253.2 291 265 290.8C283.9 290.5 285.8 290.3 289.7 288.3C296.5 284.6 298.1 281.5 299.1 269.2C300.2 255.8 300.8 251.9 302.7 245C307.8 226.9 317.3 220.1 329.3 226.1C331.9 227.4 338.7 233.7 347 242.3C375.9 272.5 385.2 281.3 392.6 285.2C405.4 292 406.7 292.1 450.5 291.4C492.4 290.8 498.1 290.2 505.2 285.5C517 277.7 513.4 265.5 491.6 238C488.3 233.9 473.6 218.6 458.9 204C439 184.4 431.5 176.3 430.1 173C425.1 161.8 427.8 156.3 457 118C484.6 81.8 496.1 64.9 504.6 47.9C513.6 29.9 514 20.2 505.7 15.7L501.5 13.5L451 13.9C396.3 14.2 397.2 14.1 393.1 19.8C392 21.4 388.9 28 386.2 34.6C367.1 80.6 336.7 128.6 320.1 139.2C311.9 144.3 306.2 142.3 301.9 132.8L299.5 127.5V74V20.5L296.8 15C295.2 11.9 292.7 8.59998 290.8 7.29998C286.7 4.49998 278.2 2.29998 266.5 0.999983C258.3 0.0999834 221.2 -0.100017 211.5 0.699983Z" fill="#F9F0DC"/>
</svg>
