<svg width="480" height="172" fill="none" xmlns="http://www.w3.org/2000/svg"><path d="M17 7.2l8.7 7.3-.5 58c-.6 59.4-.9 65.1-4.7 72.5-2.5 4.8-9 10.6-15.4 13.6L0 161h58.1l3.4 3.5 3.4 3.5H33.6c-24.6 0-31.2.3-30.9 1.2.4 1 8.4 1.4 34.7 1.6l34.3.2-5-5.6c-3.7-4.1-6.6-6.3-10.8-8-11-4.5-16.2-10.9-18.5-22.9-.6-3.7-1.2-25.6-1.5-56.5l-.4-50.5 2.7 5 2.8 5 .6 48c.5 46.7.6 48.2 2.8 55 1.8 5.4 3.4 8.1 7.1 11.8 2.6 2.6 5.3 4.7 6 4.7.7 0-.3-1.5-2.2-3.4-8.7-8.5-10-18-9.6-70.7l.3-35.7 29 56.9 29 56.8 10.7.1h10.7l.3-66.3c.4-63.9.4-66.4 2.5-72.4 2.9-8.6 5.5-11.9 14.2-17.4L150 0h-27.7C107 0 94.5.2 94.5.4s2.4 1.8 5.4 3.4c6.4 3.7 11 8.9 12.7 14.6.8 2.8 1.3 17 1.6 46.6.3 23.4.3 42.3 0 42-.2-.3-10.8-21.1-23.6-46.2L67.4 15.1l7.3-5.1c6.9-4.9 8.6-6.9 6.3-7.7-1.4-.4-18.1 11-17.8 12.3.1.5 11.7 23.4 25.7 50.9l25.6 50v14L100.4 102c-7.7-15.1-21.2-41.5-30-58.7l-16-31.2 7.8-5.2c4.3-2.8 8.2-5.6 8.7-6C71.5.4 58 0 40.1 0H8.3L17 7.2zm162.1-1c3.7 3.5 7.5 6.9 8.5 7.6 1.8 1.3 1.9 4.1 1.9 67.1v65.8l-8.6 7.2-8.6 7.1h65.1c51.9 0 65-.3 64.4-1.3-.4-.6-3-4.5-5.6-8.5-4.9-7.4-11.9-22.3-15.2-32.2l-1.9-5.5-1.7 6.8c-3.5 13.9-10.7 23.5-20.6 27.8-7.2 3.1-23.9 4.9-30 3.3l-2.3-.6v-130l6.1-7c4.7-5.2 5.9-7.2 5-8.1-.8-.8-2.7.4-7.6 5.3l-6.5 6.4V151h-7V17.2l9.2-8.6 9.2-8.6h-60.5l6.7 6.2zm147.3-4.9c.6.8 4.7 4.3 9.1 7.8l8 6.4v53.2l-4.9.6c-9.7 1.1-18 7.7-20.5 16.3-.6 1.9-.1 1.8 6.1-1.2 4.3-2.1 9.1-3.6 13.1-4 6.1-.7 6.2-.6 6.2 1.8 0 2.3-.6 2.7-5.7 3.7-7.3 1.4-14.3 4.6-14.3 6.4 0 2.3 1.2 2.8 3.4 1.4 2.4-1.5 9.7-4.3 13.9-5.1l2.7-.6v56.6l-9 6.8c-4.9 3.8-9 7-9 7.2 0 .2 31.3.4 69.5.4h69.6l-6.7-7.8c-7.3-8.5-12.5-17.8-15-27.1-1-3.3-2.1-5.8-2.5-5.5-.4.2-2.7 3.9-5 8-9.7 17.6-16.9 21.4-44.1 23l-11.8.7V88h13.6c12 0 13.5-.2 12.4-1.5-1-1.2-4-1.5-15.1-1.5h-13.9v65h-8V80h33.9l7.8 9.7 7.8 9.7.3-13.2c.1-7.3.1-19 0-26.1l-.3-12.9-7.8 10.9-7.8 10.9h-22.9V22l2.8-.7c1.5-.4 8.8-.7 16.2-.7 15.1 0 17 .6 26.8 8.4 6.1 4.7 6.7 4.1 1.6-1.9-4.2-4.9-8.8-7.4-16.2-9-5.7-1.2-25.9-1.5-31.1-.5l-3.1.6V69h-8V12.3l6.8-.6c16.4-1.6 35.7 0 43 3.4 5.1 2.5 9 7.1 13.8 16.3l3.7 6.9 4.7-10c4.4-9.3 13.7-24.4 16-25.8.5-.3 1-1 1-1.6 0-.5-25.5-.9-66.1-.9-55.1 0-66 .2-65 1.3z" fill="#F9F0DC"/><path d="M456.1 13.9c-3.1 4.3-7.9 12.2-10.7 17.5-4.2 8-4.9 9.9-3.8 11.2 1 1.2 1.7.4 4.5-5.4 1.8-3.8 6.7-11.9 10.8-18 5.8-8.6 7.2-11.3 6.2-12.1-1-.8-2.6.8-7 6.8zM147.5 11c-6.3 2.1-11.2 6.9-13.1 12.7-1 2.9-1.4 20-1.7 74l-.3 70.3h-12.5c-9.6 0-12.5.3-12.2 1.2.3 1 4.4 1.4 14.6 1.6l14.2.3V101c0-49.4.3-71.5 1.1-74.7 1.4-5.2 6.2-10.7 10.5-11.7 3-.8 6.4-3.3 6.4-4.8 0-1.1-.7-1-7 1.2zm277 65.8c0 24.1.2 28.1 1.5 28.6 1.4.5 1.5-2.8 1.3-27.6-.2-21.4-.6-28.2-1.5-28.6-1-.3-1.3 5.7-1.3 27.6zm-135 44.8c0 .3 1.6 3.9 3.5 8 4 8.7 9.2 17.6 14.8 25.3l3.9 5.3-1.7 3.9-1.8 3.9h-66c-58.5 0-65.8.2-64.7 1.5 1.1 1.3 9.8 1.5 66.9 1.5h65.7l2.6-5.4 2.7-5.4-6.2-9.4c-3.4-5.1-8.3-13.7-11-19-4-8.2-6-10.8-8.3-10.8-.2 0-.4.3-.4.6zm161 5c3 7.8 10 18.2 18.2 26.9l6.1 6.6-1.8 3.9-1.8 4h-68.4c-54.3 0-68.4.3-68.1 1.2.4 1 15.3 1.4 69.4 1.5l68.9.3 3.1-5.3 3.1-5.3-5-5.4c-7.7-8.6-13.2-16.1-17.2-23.2-1.9-3.6-4.4-6.8-5.5-7.1-1.6-.4-1.7-.2-1 1.9z" fill="#F9F0DC"/></svg>