<svg width="480" height="172" viewBox="0 0 480 172" fill="none" xmlns="http://www.w3.org/2000/svg">
<path d="M17 7.2L25.7 14.5L25.2 72.5C24.6 131.9 24.3 137.6 20.5 145C18 149.8 11.5 155.6 5.1 158.6L0 161H29.1H58.1L61.5 164.5L64.9 168H33.6C9 168 2.4 168.3 2.7 169.2C3.1 170.2 11.1 170.6 37.4 170.8L71.7 171L66.7 165.4C63 161.3 60.1 159.1 55.9 157.4C44.9 152.9 39.7 146.5 37.4 134.5C36.8 130.8 36.2 108.9 35.9 78L35.5 27.5L38.2 32.5L41 37.5L41.6 85.5C42.1 132.2 42.2 133.7 44.4 140.5C46.2 145.9 47.8 148.6 51.5 152.3C54.1 154.9 56.8 157 57.5 157C58.2 157 57.2 155.5 55.3 153.6C46.6 145.1 45.3 135.6 45.7 82.9L46 47.2L75 104.1L104 160.9L114.7 161H125.4L125.7 94.7C126.1 30.8 126.1 28.3 128.2 22.3C131.1 13.7 133.7 10.4 142.4 4.89999L150 0H122.3C107 0 94.5 0.199997 94.5 0.399994C94.5 0.599991 96.9 2.2 99.9 3.8C106.3 7.5 110.9 12.7 112.6 18.4C113.4 21.2 113.9 35.4 114.2 65C114.5 88.4 114.5 107.3 114.2 107C114 106.7 103.4 85.9 90.6 60.8L67.4 15.1L74.7 10C81.6 5.09999 83.3 3.09999 81 2.3C79.6 1.89999 62.9 13.3 63.2 14.6C63.3 15.1 74.9 38 88.9 65.5L114.5 115.5V122.5V129.5L100.4 102C92.7 86.9 79.2 60.5 70.4 43.3L54.4 12.1L62.2 6.89999C66.5 4.09999 70.4 1.3 70.9 0.899994C71.5 0.399994 58 0 40.1 0H8.3L17 7.2Z" fill="#F9F0DC"/>
<path d="M179.1 6.2C182.8 9.7 186.6 13.1 187.6 13.8C189.4 15.1 189.5 17.9 189.5 80.9V146.7L180.9 153.9L172.3 161H237.4C289.3 161 302.4 160.7 301.8 159.7C301.4 159.1 298.8 155.2 296.2 151.2C291.3 143.8 284.3 128.9 281 119L279.1 113.5L277.4 120.3C273.9 134.2 266.7 143.8 256.8 148.1C249.6 151.2 232.9 153 226.8 151.4L224.5 150.8V85.8V20.8L230.6 13.8C235.3 8.59999 236.5 6.59999 235.6 5.7C234.8 4.89999 232.9 6.09999 228 11L221.5 17.4V84.2V151H218H214.5V84.1V17.2L223.7 8.59999L232.9 0H202.7H172.4L179.1 6.2Z" fill="#F9F0DC"/>
<path d="M326.4 1.3C327 2.09999 331.1 5.59999 335.5 9.09999L343.5 15.5V42.1V68.7L338.6 69.3C328.9 70.4 320.6 77 318.1 85.6C317.5 87.5 318 87.4 324.2 84.4C328.5 82.3 333.3 80.8 337.3 80.4C343.4 79.7 343.5 79.8 343.5 82.2C343.5 84.5 342.9 84.9 337.8 85.9C330.5 87.3 323.5 90.5 323.5 92.3C323.5 94.6 324.7 95.1 326.9 93.7C329.3 92.2 336.6 89.4 340.8 88.6L343.5 88V116.3V144.6L334.5 151.4C329.6 155.2 325.5 158.4 325.5 158.6C325.5 158.8 356.8 159 395 159H464.6L457.9 151.2C450.6 142.7 445.4 133.4 442.9 124.1C441.9 120.8 440.8 118.3 440.4 118.6C440 118.8 437.7 122.5 435.4 126.6C425.7 144.2 418.5 148 391.3 149.6L379.5 150.3V119.1V88H393.1C405.1 88 406.6 87.8 405.5 86.5C404.5 85.3 401.5 85 390.4 85H376.5V117.5V150H372.5H368.5V115V80H385.5H402.4L410.2 89.7L418 99.4L418.3 86.2C418.4 78.9 418.4 67.2 418.3 60.1L418 47.2L410.2 58.1L402.4 69H391H379.5V45.5V22L382.3 21.3C383.8 20.9 391.1 20.6 398.5 20.6C413.6 20.6 415.5 21.2 425.3 29C431.4 33.7 432 33.1 426.9 27.1C422.7 22.2 418.1 19.7 410.7 18.1C405 16.9 384.8 16.6 379.6 17.6L376.5 18.2V43.6V69H372.5H368.5V40.6V12.3L375.3 11.7C391.7 10.1 411 11.7 418.3 15.1C423.4 17.6 427.3 22.2 432.1 31.4L435.8 38.3L440.5 28.3C444.9 19 454.2 3.89999 456.5 2.5C457 2.2 457.5 1.5 457.5 0.899994C457.5 0.399994 432 0 391.4 0C336.3 0 325.4 0.199997 326.4 1.3Z" fill="#F9F0DC"/>
<path d="M456.1 13.9C453 18.2 448.2 26.1 445.4 31.4C441.2 39.4 440.5 41.3 441.6 42.6C442.6 43.8 443.3 43 446.1 37.2C447.9 33.4 452.8 25.3 456.9 19.2C462.7 10.6 464.1 7.89999 463.1 7.09999C462.1 6.29999 460.5 7.89999 456.1 13.9Z" fill="#F9F0DC"/>
<path d="M147.5 11C141.2 13.1 136.3 17.9 134.4 23.7C133.4 26.6 133 43.7 132.7 97.7L132.4 168H119.9C110.3 168 107.4 168.3 107.7 169.2C108 170.2 112.1 170.6 122.3 170.8L136.5 171.1V101C136.5 51.6 136.8 29.5 137.6 26.3C139 21.1 143.8 15.6 148.1 14.6C151.1 13.8 154.5 11.3 154.5 9.8C154.5 8.7 153.8 8.8 147.5 11Z" fill="#F9F0DC"/>
<path d="M424.5 76.8C424.5 100.9 424.7 104.9 426 105.4C427.4 105.9 427.5 102.6 427.3 77.8C427.1 56.4 426.7 49.6 425.8 49.2C424.8 48.9 424.5 54.9 424.5 76.8Z" fill="#F9F0DC"/>
<path d="M289.5 121.6C289.5 121.9 291.1 125.5 293 129.6C297 138.3 302.2 147.2 307.8 154.9L311.7 160.2L310 164.1L308.2 168H242.2C183.7 168 176.4 168.2 177.5 169.5C178.6 170.8 187.3 171 244.4 171H310.1L312.7 165.6L315.4 160.2L309.2 150.8C305.8 145.7 300.9 137.1 298.2 131.8C294.2 123.6 292.2 121 289.9 121C289.7 121 289.5 121.3 289.5 121.6Z" fill="#F9F0DC"/>
<path d="M450.5 126.6C453.5 134.4 460.5 144.8 468.7 153.5L474.8 160.1L473 164L471.2 168H402.8C348.5 168 334.4 168.3 334.7 169.2C335.1 170.2 350 170.6 404.1 170.7L473 171L476.1 165.7L479.2 160.4L474.2 155C466.5 146.4 461 138.9 457 131.8C455.1 128.2 452.6 125 451.5 124.7C449.9 124.3 449.8 124.5 450.5 126.6Z" fill="#F9F0DC"/>
</svg>
