<svg width="100" height="48" viewBox="0 0 100 48" fill="none" xmlns="http://www.w3.org/2000/svg">
<path d="M16.6667 28C21.25 28 25 24.4 25 20C25 15.6 21.25 12 16.6667 12C12.0833 12 8.33333 15.6 8.33333 20C8.33333 24.4 12.0833 28 16.6667 28ZM21.375 32.4C19.8333 32.16 18.2917 32 16.6667 32C12.5417 32 8.625 32.84 5.08333 34.32C2 35.6 0 38.48 0 41.72V48H18.75V41.56C18.75 38.24 19.7083 35.12 21.375 32.4ZM83.3333 28C87.9167 28 91.6667 24.4 91.6667 20C91.6667 15.6 87.9167 12 83.3333 12C78.75 12 75 15.6 75 20C75 24.4 78.75 28 83.3333 28ZM100 41.72C100 38.48 98 35.6 94.9167 34.32C91.375 32.84 87.4583 32 83.3333 32C81.7083 32 80.1667 32.16 78.625 32.4C80.2917 35.12 81.25 38.24 81.25 41.56V48H100V41.72ZM67.6667 30.6C62.7917 28.52 56.7917 27 50 27C43.2083 27 37.2083 28.56 32.3333 30.6C27.8333 32.52 25 36.84 25 41.56V48H75V41.56C75 36.84 72.1667 32.52 67.6667 30.6ZM33.625 40C34 39.08 34.1667 38.44 37.4167 37.24C41.4583 35.72 45.7083 35 50 35C54.2917 35 58.5417 35.72 62.5833 37.24C65.7917 38.44 65.9583 39.08 66.375 40H33.625ZM50 8C52.2917 8 54.1667 9.8 54.1667 12C54.1667 14.2 52.2917 16 50 16C47.7083 16 45.8333 14.2 45.8333 12C45.8333 9.8 47.7083 8 50 8ZM50 0C43.0833 0 37.5 5.36 37.5 12C37.5 18.64 43.0833 24 50 24C56.9167 24 62.5 18.64 62.5 12C62.5 5.36 56.9167 0 50 0Z" fill="white"/>
</svg>
