<svg width="512" height="512" viewBox="0 0 512 512" fill="none" xmlns="http://www.w3.org/2000/svg">
<path d="M143.4 1.00013C68 9.00013 9.00002 68.4001 1.00002 144.2C-0.299976 156.5 -0.299976 355.5 1.00002 367.8C9.10002 444.2 67.8 502.9 144.2 511C156.5 512.3 355.5 512.3 367.8 511C444.2 502.9 502.9 444.2 511 367.8C512.3 355.5 512.3 156.5 511 144.2C502.9 67.8001 444.2 9.10013 367.8 1.00013C356.9 -0.0998718 154.2 -0.0998718 143.4 1.00013ZM375 50.4001C397.5 55.8001 415.6 65.7001 431 81.0001C446.7 96.8001 456.8 115.6 461.7 138C463.4 145.9 463.5 153.8 463.5 256C463.5 358.2 463.4 366.1 461.7 374C456.8 396.4 446.7 415.2 431 431C415.2 446.7 396.4 456.8 374 461.7C366.1 463.4 358.2 463.5 256 463.5C153.8 463.5 145.9 463.4 138 461.7C115.6 456.8 96.8 446.7 81 431C65.3 415.2 55.2 396.4 50.3 374C48.6 366.1 48.5 358.2 48.5 256C48.5 153.8 48.6 145.9 50.3 138C57.7 103.6 79.3 75.5001 110 60.0001C121.5 54.3001 130.8 51.5001 148 48.7001C149.4 48.4001 199.3 48.3001 259 48.4001C359.5 48.6001 368 48.7001 375 50.4001Z" fill="#F9F0DC"/>
<path d="M389 102.3C381.2 104.9 377 110.6 377 118.6C377 127.9 384.1 135 393.4 135C401.6 135 407.9 130.2 409.9 122.5C413.1 109.9 401.1 98.3001 389 102.3Z" fill="#F9F0DC"/>
<path d="M239.6 129.1C191.3 135.8 150.1 169.5 135 214.8C130 230 128.6 239 128.6 256C128.6 273.1 130 282 135.1 297.5C147.2 333.7 178.4 364.8 214.8 377C230 382 239 383.4 256 383.4C273 383.4 282 382 297.2 377C333.6 364.8 364.8 333.7 376.9 297.5C382 282 383.4 273.1 383.4 256C383.4 244.9 382.9 238.1 381.7 232C376 204.9 363.9 182.8 344.6 164.2C326.4 146.7 305.5 135.6 280.5 130.5C270.9 128.5 249.1 127.7 239.6 129.1ZM278.5 179.5C317.7 191 342.5 231.5 334.4 270.8C327.7 303.6 303.6 327.7 270.8 334.4C245.7 339.6 218.4 331.1 199.7 312.3C162.5 275.1 170.4 214.2 216.1 186.9C234.1 176.1 257.6 173.3 278.5 179.5Z" fill="#F9F0DC"/>
</svg>
